<svg xmlns="http://www.w3.org/2000/svg" viewBox="0 0 48 48"><path d="M24,7.60361c5.34024,0,5.97277.02036,8.0817.11658a11.06676,11.06676,0,0,1,3.71374.68866,6.62322,6.62322,0,0,1,3.79571,3.79572,11.0664,11.0664,0,0,1,.68866,3.7137c.09622,2.109.11658,2.74149.11658,8.08173s-.02036,5.97277-.11658,8.0817a11.06656,11.06656,0,0,1-.68866,3.71374,6.62323,6.62323,0,0,1-3.79571,3.79571,11.06656,11.06656,0,0,1-3.71374.68866c-2.10862.09622-2.7411.11658-8.0817.11658s-5.97307-.02036-8.0817-.11658a11.06645,11.06645,0,0,1-3.71373-.68866,6.62322,6.62322,0,0,1-3.79572-3.79571,11.06671,11.06671,0,0,1-.68866-3.7137C7.624,29.97277,7.60361,29.34024,7.60361,24s.02036-5.97277.11658-8.0817a11.06666,11.06666,0,0,1,.68866-3.71373,6.62321,6.62321,0,0,1,3.79572-3.79572,11.0666,11.0666,0,0,1,3.7137-.68866C18.02723,7.624,18.65976,7.60361,24,7.60361M24,4c-5.43168,0-6.11276.023-8.246.12033A14.67959,14.67959,0,0,0,10.89922,5.05,10.22673,10.22673,0,0,0,5.05,10.89922,14.67958,14.67958,0,0,0,4.12033,15.754C4.023,17.88724,4,18.5683,4,24s.023,6.11276.12033,8.246A14.67962,14.67962,0,0,0,5.05,37.10078,10.22673,10.22673,0,0,0,10.89922,42.95a14.67959,14.67959,0,0,0,4.85482.92964C17.88724,43.977,18.56832,44,24,44s6.11276-.023,8.246-.12033A14.67963,14.67963,0,0,0,37.10078,42.95,10.22674,10.22674,0,0,0,42.95,37.10078a14.67968,14.67968,0,0,0,.92964-4.85482C43.977,30.11276,44,29.43168,44,24s-.023-6.11276-.12033-8.246A14.67963,14.67963,0,0,0,42.95,10.89922,10.22674,10.22674,0,0,0,37.10078,5.05,14.67963,14.67963,0,0,0,32.246,4.12033C30.11276,4.023,29.43168,4,24,4Z"/><path d="M24,13.72973A10.27027,10.27027,0,1,0,34.27027,24,10.27027,10.27027,0,0,0,24,13.72973Zm0,16.93694A6.66667,6.66667,0,1,1,30.66667,24,6.66667,6.66667,0,0,1,24,30.66667Z"/><circle cx="34.67605" cy="13.32395" r="2.4"/></svg>
