<svg xmlns="http://www.w3.org/2000/svg" viewBox="0 0 48 48"><path d="M43.87785,13.26711a.14094.14094,0,0,0-.02342-.01866l-.01362-.00681L31.77428,7.20836a1.26754,1.26754,0,0,0-.254-.09079,1.33811,1.33811,0,0,0-.33164-.045,1.38094,1.38094,0,0,0-1.171.63659l-6.947,11.2888,8.71792,14.16659,12.1261-19.70476A.14675.14675,0,0,0,43.87785,13.26711Z"/><polygon points="19.244 16.427 19.244 29.277 30.667 34.988 19.244 16.427"/><path d="M32.38264,35.84584l9.40209,4.701C43.00817,41.15855,44,40.73043,44,39.59051V16.96765Z"/><path d="M17.26168,13.2854,5.47683,7.39293A1.35042,1.35042,0,0,0,4.878,7.23616c-.51612,0-.878.39929-.878,1.06947V33.74945a2.20027,2.20027,0,0,0,1.10763,1.79218l10.37965,5.18982a1.68694,1.68694,0,0,0,.74852.196c.64508,0,1.09755-.49913,1.09755-1.33681V13.4013A.12957.12957,0,0,0,17.26168,13.2854Z"/></svg>
