<svg xmlns="http://www.w3.org/2000/svg" viewBox="0 0 48 48"><path d="M37.00529,33.94713H31.17365l-5.02643-8.70272h10.7686V22.75559H26.14721l5.02643-8.70272h5.83164A5.02643,5.02643,0,0,0,37.00529,4a5.14,5.14,0,0,0-4.4327,2.65148l-2.83042,4.91257H18.24969L15.41928,6.65148A5.1262,5.1262,0,0,0,10.97845,4a5.02644,5.02644,0,0,0,.00813,10.05287h5.83164l5.02643,8.70272H11.08418v2.48882h10.7686l-5.02643,8.70272H10.99471a5.02643,5.02643,0,1,0,0,10.05287,5.14,5.14,0,0,0,4.4327-2.65148l2.83042-4.91257H29.7503l2.81415,4.8719.01627.03253a5.12325,5.12325,0,0,0,4.4327,2.65148,5.02237,5.02237,0,1,0-.00813-10.04473ZM34.7198,7.904a2.61334,2.61334,0,0,1,2.27735-1.41521,2.53762,2.53762,0,1,1,0,5.07523H32.597Zm-23.74136,3.66a2.53762,2.53762,0,1,1,.00813-5.07523A2.61334,2.61334,0,0,1,13.26393,7.904l2.10655,3.66816-4.392-.00813Zm17.32412,2.48882-4.3107,7.45832-4.30256-7.45832ZM13.26393,40.096a2.61334,2.61334,0,0,1-2.27735,1.41521,2.53762,2.53762,0,0,1,0-5.07524h4.40016Zm6.42538-6.14884,4.30256-7.45832,4.30256,7.45832Zm17.316,7.57218a2.62607,2.62607,0,0,1-2.26921-1.39894l-2.12281-3.69256h4.40016a2.54576,2.54576,0,0,1-.00813,5.0915Z"/></svg>