<svg xmlns="http://www.w3.org/2000/svg" viewBox="0 0 2000 2000"><title>ring-1-p3</title><path d="M950.16094,1698.25314Q974.85463,1699.99022,1000,1700c211.10538,0,400.38449-93.44936,528.727-241.23778" style="fill:none;stroke:#a09898;stroke-miterlimit:10"/><path d="M376.386,1318.29781c88.71539,173.46517,247.68011,305.04072,439.36925,357.20173" style="fill:none;stroke:#a09898;stroke-miterlimit:10"/><path d="M378.88651,676.85967a701.95312,701.95312,0,0,0-32.45393,574.36492" style="fill:none;stroke:#a09898;stroke-miterlimit:10"/><path d="M822.50443,322.70031C672.34812,361.94252,541.84566,449.797,448.82056,568.4402" style="fill:none;stroke:#a09898;stroke-miterlimit:10"/><path d="M1463.01,474.99179a697.17931,697.17931,0,0,0-388.11631-171.03234" style="fill:none;stroke:#a09898;stroke-miterlimit:10"/><path d="M1621.11419,676.861a699.86513,699.86513,0,0,0-45.66724-75.54476" style="fill:none;stroke:#a09898;stroke-miterlimit:10"/><path d="M1653.56911,1251.2202A698.32852,698.32852,0,0,0,1700,1000a705.54157,705.54157,0,0,0-7.87093-105.32129" style="fill:none;stroke:#a09898;stroke-miterlimit:10"/></svg>