<svg xmlns="http://www.w3.org/2000/svg" viewBox="0 0 2000 2000"><path d="M584.31738,318.582l-2.082-3.416q-3.416,2.08228-6.81641,4.2002l2.11523,3.395Q580.9165,320.65332,584.31738,318.582Z"/><path d="M557.44336,335.70166l-2.2168-3.32959q-3.32959,2.21631-6.64062,4.46924l2.25,3.30713Q554.12891,337.90723,557.44336,335.70166Z"/><path d="M570.793,327.00781l-2.14844-3.374q-3.375,2.15039-6.73145,4.33594l2.18359,3.35156Q567.43506,329.14746,570.793,327.00781Z"/><path d="M625.876,294.94922l-1.87109-3.53516q-3.53906,1.87354-7.06152,3.78418l1.90723,3.51611Q622.35449,296.81372,625.876,294.94922Z"/><path d="M654.34863,280.59473l-1.72852-3.60742q-3.6123,1.73145-7.209,3.49951l1.76563,3.58936Q650.75391,282.31763,654.34863,280.59473Z"/><path d="M668.79688,273.8457l-1.65625-3.64062q-3.646,1.65894-7.27832,3.35449l1.69336,3.62451Q665.16943,275.49658,668.79688,273.8457Z"/><path d="M640.03906,287.62988l-1.80078-3.57178q-3.57568,1.80249-7.13574,3.64209l1.83594,3.55371Q636.48047,289.42432,640.03906,287.62988Z"/><path d="M412.59473,459.68506l-2.94727-2.70459q-2.71143,2.95459-5.39551,5.94043l2.97461,2.67383Q409.897,462.624,412.59473,459.68506Z"/><path d="M544.27441,344.66113l-2.2832-3.28516q-3.28418,2.28369-6.5498,4.60156l2.31641,3.26123Q541.00537,346.93237,544.27441,344.66113Z"/><path d="M446.001,425.40527l-2.7793-2.877q-2.87109,2.77368-5.71875,5.58105l2.80664,2.84863Q443.14551,428.16528,446.001,425.40527Z"/><path d="M683.37988,267.38623l-1.584-3.67285q-3.67822,1.58569-7.34375,3.20947l1.62109,3.65723Q679.71777,268.96436,683.37988,267.38623Z"/><path d="M457.55078,414.46973l-2.7207-2.93164q-2.92676,2.71582-5.83105,5.46582l2.75,2.90479Q454.63916,417.1731,457.55078,414.46973Z"/><path d="M481.30176,393.29883l-2.60156-3.03906q-3.03516,2.5979-6.04785,5.23l2.63086,3.0127Q478.28174,395.884,481.30176,393.29883Z"/><path d="M531.28711,353.88086l-2.34766-3.2373q-3.2373,2.34668-6.4541,4.73047l2.38086,3.21436Q528.06689,356.21753,531.28711,353.88086Z"/><path d="M493.49512,383.07227l-2.53906-3.09082q-3.08789,2.53711-6.1543,5.1084l2.57031,3.06543Q490.42334,385.59619,493.49512,383.07227Z"/><path d="M469.31836,403.76611l-2.66211-2.98584q-2.98242,2.65723-5.94141,5.34961l2.69141,2.959Q466.35059,406.4104,469.31836,403.76611Z"/><path d="M898.2002,208.50293l-.51172-3.96729q-3.98.51343-7.9541,1.06689l.55078,3.96191Q894.23877,209.01367,898.2002,208.50293Z"/><path d="M882.38086,210.7041,881.791,206.748q-3.96973.5918-7.93262,1.22461l.63086,3.94971Q878.43115,211.29321,882.38086,210.7041Z"/><path d="M727.86914,249.76758l-1.36133-3.76074q-3.769,1.363-7.52539,2.76465l1.39844,3.748Q724.11914,251.125,727.86914,249.76758Z"/><path d="M866.61035,213.21875l-.66895-3.94336q-3.95508.6709-7.9043,1.38184l.709,3.93652Q862.6748,213.88623,866.61035,213.21875Z"/><path d="M993.78125,201.94238l-.03516-4q-4.0166.03516-8.0293.10986l.07422,3.99951Q989.78418,201.97705,993.78125,201.94238Z"/><path d="M977.80469,202.24072l-.11523-3.99854q-4.01221.115-8.02539.27051l.1543,3.99707Q973.81152,202.35449,977.80469,202.24072Z"/><path d="M961.835,202.85791l-.19336-3.99512q-4.01074.19482-8.01855.43018l.23438,3.99316Q957.84473,203.05176,961.835,202.85791Z"/><path d="M945.88574,203.79395l-.27344-3.99072q-4.00488.27466-8.00684.58936l.31445,3.98828Q941.90137,204.06738,945.88574,203.79395Z"/><path d="M850.89551,216.04688l-.748-3.92969q-3.94043.75-7.874,1.53906l.78613,3.92188Q846.97363,216.793,850.89551,216.04688Z"/><path d="M773.34863,234.834l-1.13477-3.83594q-3.84375,1.13672-7.67871,2.31152l1.17188,3.82471Q769.52295,235.9646,773.34863,234.834Z"/><path d="M742.92773,244.48926l-1.28516-3.78809q-3.79687,1.28906-7.58008,2.61523l1.32227,3.7749Q739.15088,245.77148,742.92773,244.48926Z"/><path d="M758.08789,239.51025l-1.21-3.8125q-3.82031,1.21216-7.63184,2.46338l1.24707,3.80078Q754.28711,240.7168,758.08789,239.51025Z"/><path d="M835.23926,219.18652l-.82617-3.91406q-3.92432.82837-7.84277,1.69531l.86523,3.90527Q831.3335,220.01025,835.23926,219.18652Z"/><path d="M788.69824,230.46191l-1.05664-3.85742q-3.86865,1.05981-7.72559,2.15869l1.0957,3.84668Q784.84961,231.51636,788.69824,230.46191Z"/><path d="M212.33789,870.75879l-3.94727-.64453q-.64746,3.96387-1.25586,7.93311l3.95313.60547Q211.69287,874.70435,212.33789,870.75879Z"/><path d="M1009.80176,197.96338q-4.01367-.04541-8.02441-.05029l-.00586,4q3.99316.00439,7.98535.0498Z"/><path d="M207.81836,902.40234l-3.9707-.48535q-.48779,3.9873-.93555,7.97656l3.97461.44629Q207.332,906.37012,207.81836,902.40234Z"/><path d="M215.07422,855.01025l-3.93359-.7251q-.728,3.95215-1.416,7.9082l3.94141.68457Q214.34863,858.94189,215.07422,855.01025Z"/><path d="M209.91895,886.55859l-3.959-.56592q-.56836,3.97778-1.0957,7.95752l3.96484.52539Q209.35352,890.51538,209.91895,886.55859Z"/><path d="M233.49219,777.251l-3.83984-1.11719q-1.12354,3.85986-2.20605,7.728l3.85156,1.07813Q232.37451,781.09253,233.49219,777.251Z"/><path d="M225.18359,808.13184l-3.88281-.96143q-.9668,3.90161-1.8916,7.80957l3.89258.92139Q224.22168,812.01367,225.18359,808.13184Z"/><path d="M229.18262,792.6499l-3.86328-1.03906q-1.043,3.8811-2.04883,7.77l3.873,1Q228.14258,796.51221,229.18262,792.6499Z"/><path d="M202.50879,1029.98877l-3.99707.15381q.15527,4.01221.34863,8.02148l3.99609-.19336Q202.66309,1033.9812,202.50879,1029.98877Z"/><path d="M202.05566,1014.01563l-4,.07324q.07324,4.01514.18848,8.02832l3.998-.11426Q202.12793,1018.0105,202.05566,1014.01563Z"/><path d="M206.03613,918.28516l-3.97852-.40674q-.40869,3.99536-.77539,7.99365l3.98242.36621Q205.63086,922.25977,206.03613,918.28516Z"/><path d="M205.78027,1077.80078l-3.98047.39258q.39258,3.99463.82715,7.98438l3.97656-.43213Q206.17285,1081.77588,205.78027,1077.80078Z"/><path d="M238.11426,761.94043l-3.81836-1.19482q-1.20117,3.83789-2.36133,7.68311l3.83008,1.15527Q236.91895,765.75854,238.11426,761.94043Z"/><path d="M202.60742,966.0957l-3.99609-.167q-.167,4.01221-.29395,8.02441l3.998.126Q202.44141,970.0874,202.60742,966.0957Z"/><path d="M201.91895,999.26855l.002-1.23193-4-.00928-.002,1.23682q0,3.39771.02832,6.79443l4-.0332Q201.91943,1002.646,201.91895,999.26855Z"/><path d="M202.10449,982.06445l-3.998-.08594q-.08789,4.01367-.13281,8.02637l4,.04492Q202.019,986.05811,202.10449,982.06445Z"/><path d="M381.28418,495.93506l-3.10352-2.52295q-2.52979,3.1106-5.03027,6.25244l3.12891,2.49121Q378.76807,499.03052,381.28418,495.93506Z"/><path d="M343.03125,547.00586l-3.293-2.27q-2.2749,3.29956-4.52148,6.62939l3.31641,2.2373Q340.76855,550.28906,343.03125,547.00586Z"/><path d="M316.958,587.335l-3.42187-2.0708q-2.08594,3.44531-4.13281,6.9043l3.44141,2.03809Q314.88379,590.76416,316.958,587.335Z"/><path d="M243.04395,746.72461l-3.793-1.27051q-1.27734,3.813-2.51562,7.63379l3.80469,1.23242Q241.772,750.519,243.04395,746.72461Z"/><path d="M334.085,560.26367l-3.33789-2.2041q-2.21924,3.36108-4.40332,6.7373l3.35938,2.17188Q331.87549,563.60986,334.085,560.26367Z"/><path d="M371.33691,508.42627l-3.1543-2.46045q-2.46533,3.15967-4.9043,6.35059l3.17773,2.4292Q368.8833,511.57056,371.33691,508.42627Z"/><path d="M391.47852,483.644l-3.05273-2.58447q-2.58984,3.06006-5.1543,6.15088l3.07813,2.55371Q388.90137,486.68872,391.47852,483.644Z"/><path d="M401.917,471.55859l-3-2.64453q-2.65137,3.00732-5.27637,6.04688l3.02734,2.61426Q399.27979,474.55176,401.917,471.55859Z"/><path d="M325.38867,573.71582l-3.38086-2.13867q-2.15332,3.4043-4.26953,6.82324l3.40234,2.10449Q323.24414,577.10352,325.38867,573.71582Z"/><path d="M308.80371,601.11719l-3.46289-2.00293q-2.01562,3.48633-3.99316,6.98535l3.48242,1.9668Q306.79736,604.58521,308.80371,601.11719Z"/><path d="M272.25,672.28809l-3.64551-1.64648q-1.65527,3.6665-3.27344,7.34521l3.66211,1.60986Q270.60156,675.93677,272.25,672.28809Z"/><path d="M259.667,701.71045l-3.709-1.498q-1.50732,3.73022-2.97461,7.47021l3.72461,1.46Q258.167,705.42188,259.667,701.71045Z"/><path d="M265.80957,686.93652l-3.67773-1.57227q-1.582,3.69873-3.124,7.40869l3.69336,1.53516Q264.23633,690.61743,265.80957,686.93652Z"/><path d="M278.98633,657.76953,275.375,656.0498q-1.73,3.63428-3.42187,7.27881l3.62891,1.68359Q277.26514,661.38525,278.98633,657.76953Z"/><path d="M286.0127,643.3877l-3.57617-1.792q-1.80322,3.59912-3.56738,7.209l3.59375,1.75684Q284.21924,646.96973,286.0127,643.3877Z"/><path d="M1169.15723,215.81738q-3.92725-.84521-7.8623-1.65137l-.80273,3.918q3.91406.80273,7.82324,1.644Z"/><path d="M1719.75488,645.90918q-1.76514-3.59473-3.56641-7.1748l-3.57227,1.79883q1.793,3.56177,3.54883,7.13965Z"/><path d="M1723.04688,662.05762l3.625-1.69141q-1.69336-3.62988-3.42285-7.24512l-3.60742,1.72656Q1721.36279,658.44458,1723.04688,662.05762Z"/><path d="M1712.55176,631.59668q-1.83545-3.55957-3.708-7.10156l-3.53711,1.86914q1.86328,3.52441,3.69043,7.06641Z"/><path d="M1753.08887,735.90723l3.77539-1.32031q-1.32275-3.78369-2.68555-7.55566l-3.76172,1.35938Q1751.772,732.14282,1753.08887,735.90723Z"/><path d="M1747.6709,720.90039l3.748-1.39551q-1.39746-3.75659-2.835-7.5l-3.73437,1.43359Q1746.28076,717.16357,1747.6709,720.90039Z"/><path d="M1741.9541,706.00586l3.7207-1.4707q-1.47363-3.72656-2.9834-7.43945l-3.70508,1.50586Q1740.48779,702.29736,1741.9541,706.00586Z"/><path d="M1705.06348,617.43164q-1.90576-3.52-3.84961-7.02441l-3.498,1.93945q1.93213,3.48633,3.83008,6.98975Z"/><path d="M1735.94531,691.229l3.68945-1.54395q-1.54541-3.69653-3.13086-7.37891l-3.67383,1.58105Q1734.40625,687.55151,1735.94531,691.229Z"/><path d="M1644.9541,522.93115q-2.37891-3.2146-4.791-6.40967l-3.19141,2.41113q2.40088,3.178,4.76563,6.377Z"/><path d="M1635.30957,510.16211q-2.44189-3.16553-4.918-6.31055l-3.14258,2.47461q2.46387,3.12891,4.89258,6.2793Z"/><path d="M1654.34277,535.89355q-2.313-3.26221-4.66211-6.50537l-3.23926,2.34668q2.33643,3.22632,4.6377,6.47217Z"/><path d="M1697.29492,603.42188q-1.97607-3.48193-3.98926-6.9458l-3.459,2.01025q2.00391,3.44678,3.96973,6.91016Z"/><path d="M1689.24707,589.57227q-2.04492-3.44019-4.127-6.86279l-3.418,2.0791q2.07275,3.405,4.10742,6.82861Z"/><path d="M1672.332,562.37842q-2.18115-3.35449-4.39844-6.68994l-3.33008,2.21484q2.20605,3.31787,4.375,6.65527Z"/><path d="M1663.46875,549.04443q-2.24853-3.30908-4.53027-6.59863l-3.28711,2.27979q2.272,3.27393,4.50879,6.56641Z"/><path d="M1788.16016,875.03662l3.95117-.62646q-.62842-3.96387-1.29785-7.91943l-3.94336.666Q1787.53369,871.09351,1788.16016,875.03662Z"/><path d="M1795.65723,938.47266l3.98828-.31152q-.31348-4.002-.665-8.001l-3.98437.35156Q1795.34619,934.49023,1795.65723,938.47266Z"/><path d="M1794.25781,922.55859l3.98047-.39062q-.39111-3.99463-.82324-7.98437l-3.97656.42969Q1793.86768,918.58447,1794.25781,922.55859Z"/><path d="M1057.92773,199.95215q-4.00635-.28564-8.01172-.53223l-.24609,3.99268q3.9873.24463,7.97266.52979Z"/><path d="M1758.207,751.022l3.80078-1.24561q-1.248-3.80933-2.53418-7.60742l-3.78906,1.2832Q1756.96484,747.23145,1758.207,751.022Z"/><path d="M1625.41113,497.59229q-2.50342-3.115-5.043-6.20947l-3.0918,2.53809q2.52539,3.07764,5.01758,6.17725Z"/><path d="M1797.95215,986.34619l4-.07178q-.07324-4.01514-.18457-8.02832l-3.998.11133Q1797.88086,982.35059,1797.95215,986.34619Z"/><path d="M1797.50684,970.373l3.99609-.15234q-.15234-4.01221-.34375-8.02246l-3.99609.19238Q1797.355,966.37939,1797.50684,970.373Z"/><path d="M1796.74023,954.4126l3.99414-.231q-.23291-4.00928-.50586-8.01367l-3.99023.27246Q1796.50928,950.4248,1796.74023,954.4126Z"/><path d="M1771.74609,796.94238l3.86914-1.0166q-1.01953-3.87817-2.07617-7.74756l-3.8584,1.0542Q1770.73242,793.0835,1771.74609,796.94238Z"/><path d="M1775.64746,812.42139l3.88867-.939q-.9419-3.89941-1.92285-7.78906l-3.87891.97949Q1774.71289,808.54224,1775.64746,812.42139Z"/><path d="M1763.02344,766.23584l3.82617-1.16943q-1.17187-3.8335-2.38184-7.65723l-3.81445,1.207Q1761.85742,762.42041,1763.02344,766.23584Z"/><path d="M1779.24219,827.97656l3.90625-.86133q-.86279-3.917-1.7666-7.82568l-3.89746.90039Q1778.38232,824.0791,1779.24219,827.97656Z"/><path d="M1785.499,859.291l3.9375-.70605q-.70752-3.94922-1.45508-7.89111l-3.92969.74512Q1784.7959,855.36108,1785.499,859.291Z"/><path d="M1782.52734,843.60156l3.92188-.7832q-.78516-3.93457-1.61133-7.86035l-3.91406.82275Q1781.74414,839.68677,1782.52734,843.60156Z"/><path d="M1792.53906,906.67725l3.97266-.46973q-.47168-3.98511-.98047-7.96533l-3.96875.50781Q1792.0708,902.71094,1792.53906,906.67725Z"/><path d="M1277.1084,247.18945q-3.77344-1.39233-7.55566-2.74463l-1.34766,3.76611q3.76318,1.34619,7.51856,2.73145Z"/><path d="M1215.95117,227.38916q-3.87158-1.08325-7.75-2.12549l-1.03906,3.86328q3.85986,1.03711,7.71094,2.11426Z"/><path d="M1231.38574,231.874q-3.84814-1.16016-7.70508-2.28125l-1.11719,3.84082q3.83789,1.11475,7.668,2.27051Z"/><path d="M1292.13769,252.9082q-3.7456-1.46924-7.501-2.89746l-1.42187,3.73828q3.73828,1.42163,7.46191,2.88281Z"/><path d="M1336.49414,271.86719q-3.65039-1.69336-7.31348-3.3457l-1.64453,3.64551q3.64307,1.645,7.27539,3.3291Z"/><path d="M1379.64258,293.47266q-3.54492-1.91016-7.10156-3.78125l-1.86133,3.54q3.53906,1.86182,7.06543,3.7627Z"/><path d="M1307.04785,258.92822q-3.71631-1.54321-7.44043-3.04785l-1.498,3.70947q3.70752,1.49561,7.40332,3.03223Z"/><path d="M1321.835,265.249q-3.68555-1.61865-7.37891-3.19727l-1.57227,3.67773q3.67676,1.57178,7.3418,3.18164Z"/><path d="M1089.91406,202.88477q-3.9917-.44678-7.98633-.85352l-.4043,3.97949q3.97412.4043,7.94531.84863Z"/><path d="M1073.93457,201.25781q-4.00049-.36621-8.001-.69287l-.32422,3.98682q3.98.32373,7.96.68945Z"/><path d="M1105.8584,204.832q-3.98291-.52734-7.96875-1.01416l-.48437,3.9707q3.96533.48413,7.92773,1.0083Z"/><path d="M1121.76172,207.09961q-3.97119-.60718-7.94629-1.17383l-.56445,3.96q3.95508.564,7.90527,1.168Z"/><path d="M1200.43164,223.2168q-3.89209-1.00342-7.79-1.96777l-.96094,3.88281q3.87891.95947,7.751,1.958Z"/><path d="M1184.832,219.35938q-3.91113-.92578-7.8291-1.81055l-.88086,3.90186q3.89795.88037,7.78809,1.80127Z"/><path d="M207.50488,1093.68164l-3.97266.47119q.47314,3.98511.98535,7.96533l3.9668-.50977Q207.97607,1097.64746,207.50488,1093.68164Z"/><path d="M1513.21582,383.62451q-3.0835-2.56128-6.19726-5.09619l-2.52539,3.10254q3.09961,2.52246,6.168,5.0708Z"/><path d="M1549.30859,415.47852q-2.92529-2.74219-5.88184-5.4585l-2.707,2.94482q2.94141,2.7041,5.85352,5.43213Z"/><path d="M1560.90625,426.57227q-2.86816-2.80078-5.76953-5.5752l-2.76562,2.88965q2.88574,2.762,5.74219,5.54785Z"/><path d="M1525.459,394.001q-3.03369-2.62207-6.0957-5.21875l-2.58594,3.05127q3.04834,2.584,6.06445,5.19287Z"/><path d="M1583.376,449.39941q-2.74365-2.90186-5.52148-5.78027l-2.87793,2.77832q2.76563,2.863,5.49316,5.75Z"/><path d="M1594.24219,461.124q-2.68652-2.95605-5.4043-5.88965l-2.93359,2.71875q2.7041,2.91943,5.377,5.86133Z"/><path d="M1604.874,473.06836q-2.62646-3.01025-5.28613-5.99854l-2.98828,2.65918q2.647,2.9729,5.25977,5.96924Z"/><path d="M1393.73145,301.24707q-3.50683-1.98047-7.02441-3.92236l-1.93262,3.502q3.501,1.93286,6.99023,3.90283Z"/><path d="M1572.2793,437.89648q-2.8125-2.85791-5.6582-5.69141l-2.82227,2.835q2.83154,2.81909,5.62891,5.66211Z"/><path d="M1421.43457,317.63184q-3.4248-2.11816-6.86523-4.19922l-2.07031,3.42285q3.42188,2.06982,6.832,4.17871Z"/><path d="M1407.66406,309.30078q-3.46728-2.04932-6.94727-4.06152l-2.002,3.46289q3.46289,2.00171,6.91211,4.042Z"/><path d="M1435.04,326.23438q-3.38379-2.18628-6.78125-4.335l-2.13867,3.38086q3.38232,2.13867,6.748,4.314Z"/><path d="M1488.124,363.6123q-3.18164-2.436-6.39551-4.84619l-2.40039,3.19971q3.19775,2.39795,6.36426,4.82227Z"/><path d="M1475.28516,353.9834q-3.21973-2.36426-6.46875-4.70312l-2.33594,3.24707q3.23291,2.3269,6.43555,4.67969Z"/><path d="M1500.76953,373.49414q-3.1333-2.49976-6.29883-4.97266l-2.46289,3.15234q3.14942,2.46021,6.26758,4.94727Z"/><path d="M1359.62793,1712.52441l1.79883,3.57275q3.57715-1.80139,7.13769-3.63916l-1.834-3.55444Q1363.187,1710.73242,1359.62793,1712.52441Z"/><path d="M1481.21,1636.85205l2.41211,3.19116q3.189-2.4104,6.3584-4.85547l-2.44336-3.167Q1484.3833,1634.45386,1481.21,1636.85205Z"/><path d="M1506.2168,1617.15112l2.53906,3.09131q3.08789-2.53565,6.15527-5.10523l-2.56836-3.06641Q1509.29,1614.62805,1506.2168,1617.15112Z"/><path d="M1493.81445,1627.12622l2.47559,3.14209q3.13916-2.47376,6.25781-4.98169l-2.50586-3.11719Q1496.938,1624.6648,1493.81445,1627.12622Z"/><path d="M1468.41016,1646.32422l2.34766,3.239q3.23731-2.34631,6.45605-4.72754l-2.37891-3.21582Q1471.63135,1643.98926,1468.41016,1646.32422Z"/><path d="M1455.4209,1655.53857l2.28125,3.2854q3.28564-2.28149,6.55176-4.5979l-2.31445-3.26245Q1458.69043,1653.26819,1455.4209,1655.53857Z"/><path d="M1415.36426,1681.59863l2.08008,3.417q3.41895-2.08081,6.81836-4.197l-2.11328-3.396Q1418.76563,1679.52869,1415.36426,1681.59863Z"/><path d="M1428.8916,1673.1792l2.14844,3.375q3.375-2.14856,6.73242-4.33276l-2.18164-3.35278Q1432.251,1671.04211,1428.8916,1673.1792Z"/><path d="M1565.085,1563.65918l2.835,2.82178q2.82861-2.8418,5.63281-5.71606l-2.86328-2.793Q1567.90039,1560.83167,1565.085,1563.65918Z"/><path d="M1518.416,1606.93018l2.59961,3.04q3.03662-2.5968,6.05078-5.22705l-2.62988-3.01416Q1521.438,1604.34631,1518.416,1606.93018Z"/><path d="M1576.23633,1552.22827l2.89063,2.76465q2.77148-2.89783,5.5166-5.82812l-2.918-2.73535Q1578.99219,1549.34522,1576.23633,1552.22827Z"/><path d="M1597.83789,1528.70728l3,2.64648q2.65137-3.00623,5.27832-6.04443l-3.02637-2.61572Q1600.47656,1525.71631,1597.83789,1528.70728Z"/><path d="M1587.1543,1540.57642l2.94727,2.70508q2.71-2.95239,5.39648-5.937l-2.97266-2.67578Q1589.85205,1537.63867,1587.1543,1540.57642Z"/><path d="M1542.17676,1585.77026l2.7207,2.93311q2.92676-2.71509,5.833-5.46338l-2.748-2.90625Q1545.09082,1583.0686,1542.17676,1585.77026Z"/><path d="M1618.48145,1504.34082l3.10156,2.52441q2.53125-3.10913,5.03418-6.25l-3.12891-2.49268Q1620.99951,1501.24707,1618.48145,1504.34082Z"/><path d="M1401.66895,1689.74609l2.01172,3.458q3.4585-2.0116,6.90234-4.05981l-2.04492-3.438Q1405.11182,1687.74463,1401.66895,1689.74609Z"/><path d="M1553.73145,1574.84033l2.77734,2.87769q2.87256-2.77258,5.72266-5.57788l-2.80664-2.85059Q1556.58887,1572.08118,1553.73145,1574.84033Z"/><path d="M1210.94141,1769.623l1.05664,3.85815q3.86719-1.05835,7.72559-2.155l-1.09375-3.84766Q1214.79053,1768.57019,1210.94141,1769.623Z"/><path d="M1226.293,1765.25806l1.13281,3.83642q3.84522-1.13489,7.67969-2.30811l-1.16992-3.825Q1230.11963,1764.12891,1226.293,1765.25806Z"/><path d="M1195.50391,1773.68213l.97852,3.87842q3.88916-.98145,7.76758-2.001l-1.01758-3.86865Q1199.374,1772.70569,1195.50391,1773.68213Z"/><path d="M1148.73926,1784.009l.74609,3.92993q3.94043-.7478,7.875-1.53516l-.78516-3.92212Q1152.6626,1783.26465,1148.73926,1784.009Z"/><path d="M1179.98535,1777.43384l.90137,3.89722q3.9082-.90381,7.80664-1.84644l-.93945-3.88818Q1183.87354,1776.53467,1179.98535,1777.43384Z"/><path d="M1256.71875,1755.61743l1.28418,3.78857q3.79688-1.28686,7.58105-2.61157l-1.32031-3.77563Q1260.49609,1754.33716,1256.71875,1755.61743Z"/><path d="M1164.39551,1780.87647l.82422,3.91455q3.92432-.82617,7.84277-1.69141l-.86328-3.906Q1168.30127,1780.05493,1164.39551,1780.87647Z"/><path d="M1316.27832,1732.7478l1.582,3.67383q3.67969-1.58423,7.3457-3.20581l-1.61914-3.6582Q1319.94092,1731.17188,1316.27832,1732.7478Z"/><path d="M1387.81055,1697.61816l1.94141,3.49756q3.501-1.94238,6.98438-3.92114l-1.97656-3.478Q1391.29395,1695.6853,1387.81055,1697.61816Z"/><path d="M1330.86426,1726.29517l1.6543,3.64185q3.64746-1.65747,7.28027-3.35181l-1.69141-3.625Q1334.49365,1724.64624,1330.86426,1726.29517Z"/><path d="M1373.79395,1705.21216l1.87109,3.53564q3.53906-1.8717,7.0625-3.78052l-1.90625-3.51685Q1377.31592,1703.34924,1373.79395,1705.21216Z"/><path d="M1271.7793,1750.34522l1.35938,3.76221q3.769-1.3623,7.52637-2.762l-1.39648-3.748Q1275.53027,1748.99011,1271.7793,1750.34522Z"/><path d="M1286.72949,1744.7749l1.43359,3.73413q3.74121-1.43628,7.46973-2.9104l-1.4707-3.72022Q1290.45166,1743.34509,1286.72949,1744.7749Z"/><path d="M1301.56543,1738.9082l1.50781,3.70483q3.71191-1.51062,7.40918-3.05908l-1.54492-3.68945Q1305.25781,1737.40515,1301.56543,1738.9082Z"/><path d="M1682.84668,1412.97266l3.42188,2.07275q2.08594-3.44458,4.13574-6.90283l-3.44141-2.03955Q1684.92383,1409.54468,1682.84668,1412.97266Z"/><path d="M1781.79688,1161.03613l3.918.80518q.80859-3.936,1.57813-7.87646l-3.92578-.7666Q1782.60107,1157.1189,1781.79688,1161.03613Z"/><path d="M1787.60254,1129.59766l3.94727.64795q.65039-3.96606,1.25976-7.93359l-3.95312-.60693Q1788.25,1125.65283,1787.60254,1129.59766Z"/><path d="M1778.41895,1176.6626l3.90039.88428q.88916-3.91992,1.7373-7.84424l-3.91016-.84522Q1779.30273,1172.7627,1778.41895,1176.6626Z"/><path d="M1628.43555,1491.854l3.15234,2.4624q2.4668-3.15967,4.90723-6.34863l-3.17676-2.43066Q1630.89111,1488.71069,1628.43555,1491.854Z"/><path d="M1761.77539,1238.4043l3.81641,1.19629q1.20264-3.83643,2.36523-7.68066l-3.82812-1.1582Q1762.97168,1234.58643,1761.77539,1238.4043Z"/><path d="M1774.72656,1192.21875l3.88281.96289q.9668-3.90088,1.89453-7.80811l-3.8916-.92432Q1775.68945,1188.33691,1774.72656,1192.21875Z"/><path d="M1770.71973,1207.69922l3.86328,1.04053q1.04443-3.8811,2.05176-7.769l-3.873-1.002Q1771.76123,1203.8374,1770.71973,1207.69922Z"/><path d="M1793.92578,1082.07422l3.97852.4082q.41016-3.99609.7793-7.99268l-3.98242-.36865Q1794.332,1078.09814,1793.92578,1082.07422Z"/><path d="M1797.8877,1018.29688l3.999.08789q.08935-4.01367.13672-8.02539l-4-.04883Q1797.9751,1014.30371,1797.8877,1018.29688Z"/><path d="M1802.05664,994.30469l-2.87085.02246-17.821-48.96436,11.665-54.87744,1.43994-.19922q-.55078-3.97559-1.13965-7.94385l-2.91382.43213-24.259-45.625,3.93945-56.33105,1.28906-.36621q-1.0957-3.85693-2.22852-7.7041l-2.959.87207-30.16016-41.5127-3.958-56.6084,1.21875-.53857q-1.62012-3.66431-3.27637-7.314l-2.97192,1.34912-35.45825-36.71875-11.83105-55.66357,1.16358-.72363q-2.11377-3.39844-4.26367-6.77783l-2.87158,1.82666-40.10547-31.334-19.47095-53.49756,1.05249-.88135q-2.56494-3.063-5.165-6.105L1607.509,481.335l-44.0647-25.44141-26.77588-50.35889.82275-.91406q-2.97949-2.68286-5.99023-5.34033l-2.20923,2.50391-47.05542-19.01172L1453.73389,343.541q3.14172,2.1709,6.25732,4.36523l2.30469-3.26953q-3.271-2.30566-6.57227-4.585l-2.20532,3.19287-4.99243-6.87158.57275-.84619-.626-.42139q-3.33984-2.25366-6.69629-4.46875l-2,3.03027-48.13281-12.00146-33.85913-35.0625q2.89966,1.459,5.7937,2.938l1.82617-3.55859q-3.58154-1.83838-7.17383-3.6377l-1.55664,3.10791-5.16894-5.35254-.71851.69336.10425-.99219-.35181-.03711.48071-.98486q-3.6167-1.7666-7.24512-3.49268l-1.707,3.5874-48.64136-5.11279-38.67749-30.21875c1.97217.66553,3.94409,1.332,5.91357,2.01367l1.30859-3.77979q-3.80127-1.31543-7.6084-2.5918l-1.07739,3.21436-5.39136-4.2124-.61426.78711-.03516-.99707-.9502.0332.43359-1.33936q-3.82617-1.23853-7.65918-2.437l-1.19336,3.81738c.23828.07471.47632.15283.71484.22754l-49.09082,1.71387-42.5105-24.54395c1.88892.353,3.77759.70459,5.66479,1.07178l.76367-3.92676q-3.94482-.76685-7.89258-1.49268l-.583,3.166-5.4834-3.166-.49854.86377-.17334-.98193-1.43872.25391.2688-1.54932q-3.95947-.687-7.9209-1.3335l-.64453,3.94727c.38525.063.77.13135,1.155.19482l-48.32251,8.52-45.2627-18.2876c1.69067.07617,3.38135.14795,5.07178.23486l.20508-3.99512q-4.01074-.20508-8.02148-.37109l-.1228,2.97266-5.44458-2.19971-.374.9248-.30762-.94775-1.82544.59277.051-1.63477q-4.01367-.12451-8.02441-.21094l-.08594,3.999c.44116.00977.88306.0249,1.32422.03516l-46.39258,15.07324L925.575,205.458c1.46143-.1377,2.92261-.28125,4.385-.41113l-.35352-3.98437q-3.999.35449-7.99219.749l.2688,2.72559-5.27563-1.31543-.2417.96826-.437-.896-2.116,1.03174-.18384-1.68555q-3.98877.43433-7.97461.90771L906.127,207.52c.4939-.05859.98828-.11084,1.48242-.16895l-43.61353,21.27148-48.218-5.06836c1.291-.30566,2.58057-.61816,3.87256-.91748l-.90234-3.89648q-3.9082.90527-7.80664,1.84961l.61035,2.52051-5.02148-.52832-.10425.99268-.55786-.82666-2.26855,1.53027-.44531-1.76074q-3.88916.98291-7.7666,2.00488l1.01953,3.86816c.59058-.15625,1.18384-.3042,1.7749-.4585l-40.2168,27.12646-48.66211,1.69873c1.2063-.4707,2.4104-.94727,3.61865-1.41211l-1.43555-3.7334q-3.73975,1.43848-7.46875,2.91406l.9436,2.38281-4.74341.16553.03516.99707-.667-.74072-2.25391,2.0293-.752-1.84521q-3.71045,1.51245-7.4082,3.0625l1.54688,3.689c.71631-.30029,1.43579-.5918,2.15283-.89014l-36.2251,32.61719L608.39209,304.501c1.15747-.65039,2.31177-1.30664,3.47217-1.95117l-1.94336-3.49707q-3.49951,1.94385-6.98145,3.92432l1.28394,2.25928-4.48218.79.17334.98242-.76318-.64062L597.082,308.834l-1.084-1.86279q-3.46,2.01343-6.90137,4.063l2.04688,3.43652c.79395-.47266,1.59326-.936,2.38892-1.40625l-31.52222,37.56592L515.28369,365.8125c1.06982-.81787,2.13623-1.64111,3.20947-2.45312l-2.41406-3.18994q-3.1875,2.41187-6.35547,4.8584l1.59937,2.07178-4.26733,1.38623.30786.94873-.845-.52832-1.73511,2.77686L503.417,369.9502q-3.13916,2.47559-6.25586,4.98438l2.50781,3.11621c.75146-.60449,1.5083-1.2002,2.26123-1.80176l-26.031,41.65723L431.94141,439.3457c.90381-.918,1.80322-1.84131,2.71094-2.75391l-2.83594-2.82031q-2.82715,2.84326-5.62988,5.71875l1.821,1.77393-4.0437,1.97217.4375.89746-.91113-.40625-1.33789,3.00537-1.53711-1.46826q-2.77,2.89893-5.51367,5.83057l2.91992,2.73389c.60889-.65039,1.22461-1.29248,1.83545-1.94043l-19.86816,44.623L359.7605,523.64551c.62646-.84326,1.248-1.69238,1.8772-2.53223l-3.20117-2.39795q-2.40234,3.208-4.77832,6.44629l1.84619,1.35449-3.42139,2.30811.55835.82715-.95776-.2749-1.0022,3.49512-1.72241-1.23779q-2.3335,3.24756-4.64062,6.52441l3.27148,2.30273c.5083-.72217,1.02344-1.43652,1.53369-2.15625l-13.36694,46.61426-36.14673,32.5459c.43945-.80225.87158-1.60693,1.314-2.4082l-3.502-1.93359q-1.94531,3.52515-3.85352,7.0625l1.88892,1.01855-2.64185,2.37842.66748.7417-.98779-.13867-.59229,4.21387-2.11572-1.11426q-1.87646,3.5625-3.71191,7.1377l3.55859,1.82715c.52686-1.02539,1.06567-2.04785,1.59741-3.07227l-6.77808,48.22656-31.51465,37.55664c.29614-.78516.58472-1.57178.88379-2.35645l-3.73828-1.42383q-1.43115,3.75952-2.82227,7.52832l1.93311.71338-1.8833,2.24463.76416.6416h-.99756v4.87207l-2.56348-.918q-1.35645,3.78735-2.66992,7.583l3.7793,1.30859c.47729-1.37793.96875-2.75293,1.4541-4.12891l-.00049,49.06494-26.0332,41.66113c.15356-.687.3-1.37451.45557-2.061l-3.90137-.88281q-.8877,3.91992-1.7334,7.8457l1.86523.40186-1.27246,2.03613.8457.52881-.9873.13867.75073,5.3418-2.8562-.58594q-.80859,3.936-1.57422,7.87793l3.92578.76367c.312-1.60352.63867-3.20557.96094-4.80859l6.83423,48.63086L204.46045,935.667c.03906-.48926.07275-.979.11279-1.46875l-3.98633-.32617q-.32812,4.00269-.61523,8.00635l1.66992.12012-.78613,1.76563.91064.40576-.9585.2749,1.6145,5.63037-2.98364-.18359q-.24609,4.00781-.4541,8.0166l3.99414.20654c.08789-1.69727.18994-3.395.28857-5.09229l13.4668,46.96533-13.40234,46.73828c-.01538-.25928-.03418-.51855-.04932-.77783l-3.99316.23242q.23291,4.00854.50781,8.01367l1.42114-.09766-.41138,1.43457.9585.2749-.91064.40576,2.5603,5.75049-3.03.23779q.31494,4.002.668,8l3.98438-.35254c-.15381-1.73877-.293-3.479-.4353-5.21924l19.75391,44.36914-6.75073,48.03125c-.01855-.09277-.03857-.18506-.05713-.27783l-3.92187.78711q.78809,3.93237,1.61523,7.8584l1.22388-.25781-.15161,1.0791.98779.13867-.84521.52832,3.54639,5.67529-3.06885.6792q.86719,3.91626,1.77148,7.82422l3.89648-.90186c-.41553-1.79639-.81714-3.59619-1.2207-5.39551l25.69385,41.11963-.00049,48.65088-.03711-.104-3.77539,1.32178q1.32422,3.783,2.68848,7.5542l1.124-.40674v.76611h.998l-.76367.6416,4.50513,5.36914-3.10083,1.15527q1.39893,3.75586,2.83789,7.499l3.73438-1.43555c-.71875-1.86865-1.42236-3.74219-2.12573-5.61523l31.28833,37.28857,6.81323,48.481c-.02808-.05469-.05713-.1084-.08521-.16309l-3.55469,1.835q1.83691,3.5581,3.71191,7.09961l1.08032-.57129.07593.54.98853-.13867-.66724.74121,5.366,4.83154-3.06128,1.65869q1.90869,3.52,3.85254,7.02344l3.498-1.94141q-1.57507-2.8374-3.11963-5.6875l36.4043,32.7793,13.54834,47.25049c-.05322-.07519-.10791-.1499-.16113-.2251l-3.26172,2.31494q2.31445,3.26147,4.665,6.50342l1.01172-.7334.124.43262.9585-.2749-.55811.82715,6.05518,4.08447-2.86182,2.11865q2.37891,3.21313,4.793,6.40674l3.19141-2.41211q-2.02222-2.6748-4.01514-5.36621l40.74146,27.48047,19.93628,44.77905c-.04248-.04517-.08594-.0896-.12842-.13452l-2.90527,2.74927q2.74365,2.90076,5.52246,5.77759l.87256-.84277.20361.45727.91064-.40576-.437.896,6.50757,3.17407-2.47827,2.44141q2.814,2.85608,5.66113,5.68823l2.82031-2.83594q-2.3009-2.28882-4.57422-4.59668l43.99658,21.45874,26.02686,41.65259-2.3916,3.0022q3.13477,2.49793,6.30078,4.96924l.59521-.7627.08838.14136.8457-.52881-.30762.94849,7.23584,2.35107-2.10791,2.75659q3.18311,2.43457,6.39746,4.843l2.39844-3.20093q-2.58838-1.93909-5.15063-3.89917l46.179,15.00488,31.87939,37.99316-1.86475,3.15063q3.46582,2.05188,6.94531,4.06543l.89038-1.53979.05542-.04663-.17334.98218,8.01294,1.41309-1.802,3.18652q3.50537,1.983,7.02344,3.926l1.93359-3.50147q-3.07617-1.69885-6.14038-3.43237l47.87573,8.44238L693.979,1737.614l-1.37354,3.29956q3.71484,1.54578,7.43848,3.05151l.42383-1.04785,57.48511,2.00806,42.11694,28.40845-.86377,3.34155q3.89063,1.006,7.78809,1.97192l.32983-1.33032,56.65991-5.95483,46.09106,22.48071-.36206,3.217q3.9917.44861,7.98535.85718l.14966-1.46558,54.81323-13.666,49.19092,15.98364.08447,2.9856q4.01221-.11316,8.02539-.2666l-.05786-1.51953,51.96728-20.99561,51.35327,9.05542.46484,2.74536q3.95508-.66907,7.90527-1.37817l-.28418-1.58325,48.17627-27.81421,52.46265,1.83252.81519,2.57129q3.82178-1.21106,7.63281-2.46021l-.54883-1.67383,43.56641-34.03735,52.4585-5.51318,1.16943,2.44385q3.61377-1.72961,7.21-3.49609l-.85645-1.74365,38.23584-39.59375,51.30811-12.792,1.52051,2.28662q3.33252-2.21558,6.64355-4.46631l-1.1582-1.70435,32.28-44.429,49.023-19.80615,1.81616,2.03931q2.98242-2.65686,5.94336-5.34717l-1.36426-1.50147,25.791-48.50464,45.958-26.5332,1.94043,1.64307q2.58984-3.05823,5.15625-6.14819l-1.52344-1.26465,18.71094-51.407,42.134-32.918,1.97925,1.25391q2.15625-3.4043,4.27246-6.82129l-1.76318-1.0918,11.28564-53.09375,37.61767-38.95361,2.03662.92139q1.6582-3.6665,3.27734-7.34326l-2.22314-.97949,3.7395-53.47461,32.16626-44.27246,2.043.59522q1.125-3.85986,2.209-7.72705l-2.59741-.728-3.69946-52.91064,25.92456-48.75586,1.90845.27393q.56982-3.97705,1.09961-7.95654l-2.79883-.37256-10.925-51.40088,19.03857-52.30713,1.67847.00293.001-1.61084Q1802.082,997.51343,1802.05664,994.30469Zm-12.2627-108.44092c.23975,1.65674.48316,3.3125.71289,4.97119l.41528-.05762-10.84888,51.0376-17.813-48.94189,3.63379-51.95947Zm-44.35767,218.89893-21.83716,102.73242-35.9165,98.67773-49.3064,92.73-61.7251,84.95557-72.96191,75.55322-82.75073,64.65088-90.95117,52.50977-97.37427,39.34082-101.90088,25.406-104.4436,10.97656-104.9563-3.666-103.427-18.23779-99.87549-32.45264-94.39209-46.03882L536.551,1593.17212l-78.04419-70.27246-67.50415-80.45-55.65088-89.06152-42.71411-95.939-28.94678-100.95264L249.07568,1052.498l.001-105.02051,14.6167-103.998,28.94775-100.95068,42.71533-95.938,55.65527-89.06543,67.50391-80.44678,78.04541-70.271,87.06689-58.72656,94.39331-46.0376,99.8772-32.45117L921.32593,251.356l104.95288-3.66406,104.446,10.97852,101.8977,25.40674,97.37524,39.34326,90.95,52.51074,82.75317,64.65479,72.95679,75.55078,61.72534,84.959,49.30249,92.72607,35.91846,98.6875,21.834,102.72607,7.325,104.76172Zm8.32959-90.42285,2.69556,38.55566-8.03565,37.8042Zm-9.33252,104.76367-2.69653,38.55957-13.2207,36.32324Zm-23.82153,102.44531-8.03711,37.80908-18.147,34.1294Zm-37.84375,98.12647-13.22241,36.32715-22.72339,31.27588Zm-51.13672,91.9126-18.14795,34.13037-26.85229,27.80615Zm-63.429,83.89941-22.7229,31.2749-30.46362,23.80029Zm-74.4939,74.25952-26.85156,27.80518-33.47559,19.3269Zm-84.09375,63.1626-30.46216,23.79932-35.8418,14.48071Zm-92.07519,50.84961-33.47485,19.32617-37.50513,9.35083Zm-98.25049,37.53735-35.84131,14.48047-38.44385,4.04Zm-102.52051,23.499-37.50684,9.35107-38.63135-1.34912Zm-104.79346,9.00244-38.44238,4.04-38.06641-6.7124Zm-105.02588-5.66992-38.63208-1.34937L831.55371,1734.833Zm-103.21387-20.2312-38.06812-6.71289-34.74292-16.94556ZM704.343,1693.49854l-36.76465-11.9458-32.04761-21.6167Zm-93.64478-47.89966-34.74072-16.94458-28.72437-25.86377ZM524.63867,1585.137,492.59082,1563.52l-24.8479-29.613Zm-76.80786-71.85034-28.729-25.86816-20.48608-32.78516Zm-66.06226-81.8418-24.84961-29.61523-15.72412-35.31738Zm-54.02881-90.23877-20.48682-32.78613-10.65576-37.1626Zm-40.94507-96.88086-15.72437-35.31836-5.38013-38.28418ZM259.73,1142.68359l-10.65454-37.1582.00024-38.65674Zm-12.65405-104.4165-5.37964-38.27979,5.38013-38.27881Zm2.00073-105.15967.00024-38.65625,10.65552-37.15869Zm16.61621-103.85449,5.38062-38.28271,15.72437-35.31738Zm30.908-100.53223,10.65649-37.16309,20.48706-32.78516ZM341.2,633.46631,356.92529,598.147l24.85181-29.61621Zm57.425-88.12451,20.4856-32.7832,28.72876-25.86719Zm69.1272-79.27051,24.84839-29.61279,32.04785-21.61621Zm79.491-68.88184,28.72412-25.86279,34.741-16.94434Zm88.30078-57.14551,32.0459-21.61475,36.762-11.94434Zm95.3916-44.29932,34.7439-16.94531,38.0686-6.7124Zm100.63135-30.59326,36.76392-11.94531,38.63208-1.34863Zm103.90967-16.29053,38.06836-6.71191,38.44385,4.04053Zm105.16553-1.67041,38.63135-1.34863,37.50635,9.35156Zm104.37451,12.98242,38.44238,4.04053,35.8396,14.48047Zm101.55249,27.38184,37.50586,9.35156L1317.55,316.2334Zm96.7522,41.24854,35.84131,14.48145L1409.624,367.084Zm90.06909,54.31152,33.4773,19.32861,26.85254,27.80762Zm81.63721,66.3208,30.46094,23.79932,22.7207,31.27295Zm71.61011,77.03564,26.85254,27.80713,18.14819,34.13232Zm60.19116,86.24951,22.72144,31.27393,13.22095,36.32471Zm47.60181,93.78711,18.14893,34.13379,8.03711,37.814Zm34.08984,99.51025,13.219,36.31982,2.696,38.55664Zm19.90674,103.28076,8.03491,37.80273-2.696,38.55273Zm-1.00268-14.34082-3.20215-45.79883,16.01245,43.99512-3.26636,46.70654Zm-3.70825-53.03516-3.439-49.18848,23.844,44.84521L1760.57788,888.25Zm-2.48267-6.82178-15.7-43.13623-9.54639-44.91406,21.98047,41.33984Zm-26.75464-95.147-10.251-48.229,29.854,41.09131,3.54273,50.66943Zm-3.40772-6.40869-21.55518-40.54-15.7019-43.14209,27.52246,37.88232Zm-39.738-90.49854-16.863-46.332,35.28418,36.53857,10.56006,49.68359Zm-4.26392-5.86914-26.98511-37.14209-21.554-40.53857,32.5249,33.68164ZM1615.123,553.08936l-23.147-43.53369,40.02515,31.27148,17.37183,47.72949Zm-5.0398-5.21924L1578.189,514.84229l-26.98437-37.1416,36.89722,28.82764Zm-63.14282-76.03857-28.981-39.88965,43.98828,25.397,23.84619,44.84863Zm-5.71582-4.46582-36.17773-28.26562-31.894-33.02783,40.54956,23.41162Zm-73.11182-66.5127-34.25049-35.46826,47.09473,19.02832,29.85523,41.09277Zm-6.2854-3.62891-39.7605-22.95605L1385.88867,346.002l43.41333,17.54053Zm-81.65747-55.68994-38.85205-30.35547,49.28467,12.28857,35.2832,36.5376Zm-6.72607-2.71777-42.57031-17.2002L1291.115,298.66162l45.43262,11.32764Zm-88.61255-43.7832-42.69922-24.65234,50.51563,5.30957,40.02515,31.27148Zm-7.04-1.75488-44.54614-11.10742-42.56836-17.19873,46.56543,4.89453Zm-93.84277-31.0249L1138.2334,243.7832l50.76221-1.77246,43.98779,25.397Zm-7.21777-.7583-45.65942-4.7998-44.54663-11.10693,46.7937-1.63379ZM1079.48511,243.833l-47.84082-11.92822,50.021-8.81982,47.09448,19.02783Zm-7.25146.25342-45.88159,1.60205-45.66064-4.7998,46.1106-8.12988Zm-98.759-3.95605-49.03564-5.1543,48.30713-15.6958,49.28418,12.28857Zm-7.14648,1.25977-45.2146,7.97217-45.88281,1.60205,44.53149-14.46875Zm-98.3479,9.82715-49.27563,1.72021,45.65283-22.26562,50.51514,5.30957Zm-6.8999,2.24219L817.4165,267.646l-45.21484,7.97217,42.084-20.52539Zm-96.02563,23.41895-48.55493,8.561,42.10962-28.40234,50.76123-1.77246Zm-6.522,3.18115L717.26611,300.186l-43.66162,14.186,38.81836-26.18262ZM666.7019,316.61523l-46.89136,15.23535,37.74707-33.9873,50.02148-8.81982Zm-6.01465,4.05664L622.624,346.34521,581.36035,366.4707l34.79639-31.33057Zm-85.84766,48.979-44.31641,21.61426,32.64966-38.90967,48.30786-15.6958Zm-5.39331,4.856-34.11572,30.71729-38.0647,25.6748,30.09595-35.8667ZM491.2522,434.95508l-40.87769,27.57178L477.29,419.45361,522.9436,397.1875Zm-4.66528,5.55957-29.51123,35.16943-34.12036,30.72168,24.81274-39.708Zm-69.02246,70.74512L380.9209,544.25342l20.66016-46.40234,42.11157-28.4043Zm-3.84473,6.15234-24.32959,38.93555-29.5144,35.17285,19.04541-42.77588Zm-58.5061,79.66455-31.69434,37.771,14.001-48.82617,37.74829-33.98779Zm-2.95044,6.62646-18.67529,41.94482-24.33105,38.937,12.90747-45.01172Zm-46.8501,87.0332-26.12891,41.814,7.06982-50.30078,32.65039-38.91064Zm-1.99951,6.97266-12.65625,44.13574-18.67456,41.94336,6.51733-46.36963Zm-34.282,92.707-20.0542,45.042.00024-50.79492,26.91675-43.0752Zm-1.00952,7.18262-6.39014,45.46777-12.655,44.13135.00049-46.82471ZM247.0769,894.17236l-13.59058,47.39453-7.0686-50.30029,20.65942-46.40137Zm0,7.25342-.00024,45.9126-6.39014,45.46387-6.51611-46.36768Zm-7.40015,98.56152-6.86255,48.82715L218.814,999.98779l14.00122-48.82666Zm1.00977,7.18555,6.38916,45.46484-.00024,45.9126-12.906-45.00928Zm6.38892,98.63135-.00024,49.30762-20.65942-46.40234,7.06958-50.30078Zm2,6.97461,12.65381,44.13086,6.38989,45.46875L249.075,1159.604Zm20.053,96.78174,6.86182,48.82764-26.91553-43.07471.00024-50.79443Zm2.95117,6.62842,18.67432,41.94434,12.65527,44.13525-24.81323-39.71045Zm33.32886,93.05225,13.59033,47.39648-32.65015-38.91211-7.06885-50.29981Zm3.844,6.15137,24.33032,38.9375,18.67407,41.94336-30.09814-35.87012Zm45.95483,87.50781,20.05444,45.04395-37.74756-33.98877-14.00073-48.82715Zm4.66187,5.55566,29.51245,35.17236,24.32983,38.93652-34.79712-31.332Zm57.68677,80.26172,26.12744,41.81323L401.57324,1502.127l-20.65918-46.40234Zm5.39038,4.85352,34.12061,30.72266,29.51025,35.16968-38.8186-26.18384Zm68.29614,71.45215,31.69116,37.769-45.65332-22.26709-26.91553-43.07471Zm6.01343,4.0564,38.06494,25.67554,34.116,30.71851-42.085-20.52661Zm77.57275,61.249,36.64111,32.99243-48.30811-15.69678-32.64941-38.91065Zm6.52075,3.18042,41.262,20.12524,38.06445,25.67529-44.53-14.469Zm85.34131,49.85767,40.87622,27.57178-50.02075-8.82031-37.74634-33.98755Zm6.90259,2.24292,43.66455,14.18774,41.26416,20.12622-46.11133-8.13086Zm91.45093,37.49512,44.3147,21.61426-50.76245-1.77295-42.10889-28.40356Zm7.14526,1.26,45.21436,7.9729,43.66309,14.1875-46.79419-1.63452Zm95.7793,24.40283,46.89136,15.23633-50.51514,5.30908-45.6521-22.26636Zm7.25.25317,45.88452,1.60278,45.21289,7.97266-46.56689,4.894Zm98.24292,10.83545,48.5564,8.56226-49.28516,12.2876-48.30713-15.69653Zm7.2168-.75854,45.658-4.79834,45.884,1.60254-45.43091,11.3269Zm98.79346-2.94238,49.27563,1.72095-47.09424,19.02685-50.02148-8.82031Zm7.04126-1.75562,44.54712-11.10645,45.65991-4.79883-43.41309,17.53979Zm97.4248-16.66357,49.03442-5.15332-43.98828,25.396-50.76172-1.77295Zm6.72754-2.71826,42.57007-17.199,44.54541-11.106-40.55029,23.41113Zm94.15552-30.0603L1332.6626,1693.03l-40.02612,31.27148-50.51587,5.30884Zm6.28369-3.62769,39.75806-22.9541,42.5708-17.19922-36.896,28.82593Zm89.05518-42.87085,45.7146-18.46948-35.2832,36.53638-49.28369,12.28735Zm5.719-4.468,36.17871-28.26562,39.759-22.95435L1429.291,1636.4519Zm82.2229-54.84863,42.70093-24.65308-29.856,41.09253-47.0957,19.02759Zm5.04028-5.21924,31.89307-33.02588,36.18018-28.26636-27.52246,37.88062Zm73.78931-65.7583,38.854-30.35547-23.84643,44.84766-43.98877,25.39648Zm4.26416-5.86865,26.98657-37.14356,31.894-33.02686-21.98267,41.34277Zm63.92065-75.38916,34.25147-35.46777-17.373,47.73047-40.02686,31.272Zm3.40723-6.40771,21.554-40.53662,26.98706-37.144-16.01465,43.999Zm52.80517-83.54932,28.98023-39.88769-10.56079,49.68262-35.2832,36.53613Zm2.481-6.81641,15.70361-43.144,21.55322-40.53516-9.73535,45.7998Zm40.66455-90.08838,23.14722-43.53223-3.5437,50.66992-29.85523,41.0918Zm1.50855-7.09619,9.54614-44.90967,15.7019-43.13965-3.26636,46.7085Zm27.731-94.87109,16.863-46.3291,3.54273,50.66992-23.84546,44.8457Zm.5061-7.23633,3.20313-45.80127,9.54492-44.9043,3.26587,46.7085Zm14.25757-97.80615,10.25073-48.2251,10.56006,49.68359-17.37183,47.72754Zm-.50635-7.24121-3.20215-45.79736,3.20264-45.79443,9.73389,45.79639Zm.50684-98.833,3.4397-49.18408,17.37134,47.72852L1768.728,995.1875Zm7.77148-169.86963c.43066,1.48389.8667,2.9668,1.28882,4.45313l.51221-.14551-3.66553,52.416-24.45044-45.98584-3.63306-51.9585Zm-38.29712-104.28271c.563,1.25586,1.13232,2.50977,1.68848,3.76855l.4939-.21826,3.68433,52.69336-30.61279-42.13623-10.82886-50.94727ZM1675.543,574.84619c.66138,1.05225,1.32959,2.10059,1.98535,3.15576l.42627-.26514,11.01514,51.82422-36.18164-37.46777-17.81348-48.94287Zm-65.728-89.87061c.79419.93945,1.59473,1.87549,2.38428,2.81836l.3833-.32129,18.12817,49.80859-41.04248-32.06641-24.45215-45.98877Zm-77.9126-79.979c.9707.86572,1.94727,1.72705,2.91309,2.59668l.4292-.47656,24.93164,46.89014-45.10693-26.043-30.614-42.1377Zm-88.25586-68.30371c.86523.5791,1.731,1.14941,2.59668,1.73291l.61328.41357.47754-.70557,31.4043,43.2251-48.29248-19.51172-36.18066-37.4668Zm-96.32324-55.25537c.647.31348,1.2959.62061,1.94238.93652l.33984-.69678.71411.0752,37.66113,39-50.5376-12.60107L1296.40039,276.085Zm-103.06689-41.356c.4126.13281.82617.26074,1.23877.394l.14331-.44238,1.3125-.0459,42.72241,33.37939-51.8-5.44482-45.1062-26.04248Zm-108.1582-26.59375c.27808.04785.5564.09229.83447.14014l.05151-.29639,1.791-.31592,46.95239,27.1084-52.05273,1.81738-48.292-19.51172Zm-111.04492-11.20264c.22485.00684.44971.01074.67432.01758l.00757-.23877,2.1626-.70264,50.26807,20.31006-51.293,9.04346-50.53735-12.60059Zm-111.49146,4.38867c.167-.01855.33374-.03906.50073-.05713l-.01953-.17773,2.43579-1.188,52.60571,13.1167-49.53491,16.09424L867.75,229.01709ZM803.978,226.436c.05225-.01318.10449-.02734.15674-.04053l-.01416-.05566,2.56494-1.73,53.91772,5.66748-46.81372,22.832L761.738,254.92676Zm-103.32446,32.624,54.18311-1.8916L711.656,286.29395l-51.29321,9.04395ZM600.44873,307.93262l53.39258-9.41406-38.707,34.85156-49.53564,16.09473ZM508.021,370.2749l51.56348-16.75342L526.105,393.41992l-46.81445,22.83252ZM425.168,444.875l48.731-23.76758-27.59985,44.168-43.18262,29.127Zm-71.66284,85.40283,44.94824-30.31738L377.26831,547.542,338.56055,582.394ZM294.4248,624.82422l40.2915-36.27783-14.35693,50.06689-33.48047,39.8999ZM249.07813,726.67236,283.928,685.14063l-7.24951,51.57959-27.60083,44.16943ZM218.34741,833.84082l28.73022-45.97705-.00024,52.08643-21.18481,47.58057ZM202.83008,944.24414l.93213-2.09326.19971.01416c.01343-.18652.0293-.373.043-.55957l20.87769-46.89111,7.24854,51.5791-14.35718,50.06787Zm-.001,111.48779.51074-1.78076.44727-.03076c-.02856-.41748-.05151-.83545-.07935-1.25293l14.06616-49.05273,14.3562,50.06738-7.24927,51.57959Zm15.51563,110.40234.20166-1.43408.60889-.12793c-.11987-.56885-.23242-1.13867-.35107-1.708l7.08643-50.41895,21.18433,47.58154-.00024,52.08594Zm30.72949,107.16846v-1.124l.6377-.231c-.21582-.59619-.42358-1.19482-.6377-1.7915l.00049-51.06982,27.59961,44.16943,7.24854,51.57861Zm45.34473,101.84912-.126-.89453.5752-.3042c-.28442-.53809-.56177-1.07861-.845-1.6167l-7.14941-50.87451,33.48,39.90088,14.35645,50.06787Zm59.07886,94.54736-.22339-.77881.50488-.36621c-.34131-.4707-.67554-.94482-1.01562-1.41553L338.5542,1417.583l38.70728,34.85254,21.18433,47.58154Zm71.66187,85.40478-.35059-.78784.47412-.458c-.42578-.44067-.84473-.88623-1.26929-1.32788l-20.905-46.95459,43.18091,29.12646,27.59937,44.16919Zm82.85059,74.6001-.28027-.44849.55615-.71265c-.66138-.5166-1.31543-1.03955-1.97485-1.55762l-27.031-43.25952,46.814,22.83325,33.479,39.89941Zm92.42627,62.34375-.01514-.01807.53955-.93335c-.86841-.50244-1.73267-1.01562-2.59961-1.52173l-32.77393-39.05908,49.53638,16.0957,38.70581,34.85156Zm100.82959,48.89575.27783-.68677c-1.00635-.407-2.00977-.82544-3.01489-1.23682l-38.178-34.376,51.29248,9.04468,43.18018,29.12573ZM807.83618,1775.252l.12085-.48755c-1.16895-.28955-2.33569-.5918-3.50366-.887l-42.72754-28.82056,52.053,1.81812,46.81274,22.83252Zm110.22754,19.08447.04077-.39868c-1.39893-.14331-2.79785-.3-4.19653-.45068l-46.1709-22.51929,51.79956-5.44409,49.53516,16.09546Zm111.75928,3.50732-.01343-.35278c-1.63867.06274-3.27832.11084-4.918.16333l-48.56934-15.78174,50.53809-12.6001,51.29346,9.04492ZM1140.93457,1785.72l-.04687-.26148c-1.79468.32227-3.59228.62988-5.38965.9397l-50.1272-8.83911,48.29175-19.51074,52.05249,1.81812Zm108.252-27.47241-.03516-.10693c-1.80713.59253-3.61914,1.1709-5.43091,1.75024l-50.9646-1.78,45.10645-26.042,51.8-5.44385Zm103.13281-42.09033c-1.63916.80444-3.28369,1.59668-4.92773,2.38965l-51.00244,5.36011,41.0437-32.06616,50.53662-12.59985Zm96.11426-55.8252q-2.09033,1.41907-4.19238,2.81787l-49.98706,12.46289,36.18042-37.46533L1478.728,1618.636Zm87.57153-68.90088q-1.91711,1.74024-3.84692,3.46069l-47.71289,19.27686,30.61475-42.137,45.10718-26.04224Zm77.22388-80.70361q-1.875,2.25732-3.76856,4.49365l-44.25317,25.54932,24.45264-45.98779,41.04419-32.0669Zm65.14209-90.46045q-1.62451,2.61914-3.2749,5.229l-40.12793,31.35107,17.81445-48.94385,36.18042-37.46582Zm51.86426-98.13965q-1.11,2.50562-2.23511,5.00732l-35.62939,36.89453,10.82934-50.94629,30.61426-42.13623Zm37.7417-104.53711q-.68591,2.42065-1.38306,4.83887l-30.29663,41.69922,3.63355-51.959,24.45166-45.98584Zm22.78662-109.106c-.23511,1.72266-.46777,3.44531-.71387,5.16748l-24.15772,45.43311-3.63281-51.959,17.81348-48.94092Zm-10.18408-57.53809L1769.751,999.999l10.8291-50.94531,17.48755,48.04785c.00562,1.20752.0144,2.41455.0144,3.624l-.001,1.60059.19507.00049Z"/><path d="M1797.37793,1034.26563l3.99609.16846q.16846-4.01147.29688-8.02393l-3.998-.12793Q1797.54541,1030.27393,1797.37793,1034.26563Z"/><path d="M1796.54688,1050.22266l3.99219.249q.25049-4.00928.458-8.01758l-3.99414-.20752Q1796.79492,1046.23462,1796.54688,1050.22266Z"/><path d="M1756.83789,1253.61719l3.791,1.27344q1.28174-3.81226,2.52051-7.63281l-3.80469-1.23437Q1758.11133,1249.824,1756.83789,1253.61719Z"/><path d="M1795.39551,1066.16211l3.98633.32764q.32959-4.00269.61914-8.00537l-3.99023-.28955Q1795.72217,1062.17847,1795.39551,1066.16211Z"/><path d="M1792.13574,1097.95606l3.9707.48828q.49072-3.9873.93945-7.97656l-3.97461-.44775Q1792.62451,1093.989,1792.13574,1097.95606Z"/><path d="M1784.85742,1145.3457l3.93359.72656q.72949-3.95142,1.41895-7.90674l-3.94043-.6875Q1785.584,1141.41333,1784.85742,1145.3457Z"/><path d="M1117.25,1789.33765l.58789,3.95654q3.96973-.5907,7.93262-1.22095l-.62891-3.95044Q1121.19971,1788.75012,1117.25,1789.33765Z"/><path d="M1698.89453,1385.25879l3.501,1.93457q1.94824-3.52368,3.85644-7.06055l-3.51953-1.89941Q1700.83252,1381.752,1698.89453,1385.25879Z"/><path d="M1691.00977,1399.19482l3.46094,2.0044q2.01855-3.48486,3.99707-6.98291l-3.48047-1.97021Q1693.01709,1395.72656,1691.00977,1399.19482Z"/><path d="M1665.709,1440.03613l3.33594,2.20605q2.22217-3.36035,4.40625-6.73535l-3.35742-2.17383Q1667.91846,1436.6919,1665.709,1440.03613Z"/><path d="M1638.13867,1479.17188l3.20117,2.39941q2.40381-3.20654,4.78125-6.44434l-3.22461-2.36719Q1640.53076,1475.981,1638.13867,1479.17188Z"/><path d="M1647.5752,1466.32227l3.248,2.335q2.3335-3.24536,4.64258-6.52148l-3.26953-2.30371Q1649.89941,1463.09131,1647.5752,1466.32227Z"/><path d="M1656.75586,1453.28906l3.293,2.27148q2.27637-3.2981,4.52344-6.627l-3.31445-2.23877Q1659.021,1450.0061,1656.75586,1453.28906Z"/><path d="M1751.59375,1268.729l3.76563,1.34961q1.35645-3.78589,2.67383-7.58057l-3.7793-1.312Q1752.94434,1264.96167,1751.59375,1268.729Z"/><path d="M1740.19336,1298.62354l3.707,1.501q1.51025-3.72949,2.97852-7.46924l-3.72266-1.46191Q1741.69434,1294.91333,1740.19336,1298.62354Z"/><path d="M1734.043,1313.395l3.67676,1.5752q1.585-3.69873,3.12891-7.4082l-3.69336-1.53662Q1735.62012,1309.71533,1734.043,1313.395Z"/><path d="M1746.04395,1283.7334l3.73828,1.4248q1.43262-3.75806,2.82617-7.52588l-3.752-1.38769Q1747.4707,1279.9939,1746.04395,1283.7334Z"/><path d="M1706.501,1371.17041l3.53906,1.86475q1.87647-3.5625,3.71387-7.13574l-3.55762-1.8291Q1708.36963,1367.627,1706.501,1371.17041Z"/><path d="M1720.85352,1342.55615l3.61133,1.7207q1.73145-3.63281,3.42383-7.27686l-3.627-1.68555Q1722.57568,1338.94141,1720.85352,1342.55615Z"/><path d="M1713.82031,1356.93457l3.57617,1.793q1.80469-3.59766,3.57031-7.20752l-3.59375-1.75733Q1715.6167,1353.35449,1713.82031,1356.93457Z"/><path d="M877.86816,1792.83008q3.96973.609,7.94434,1.17773l.56641-3.96q-3.95361-.56543-7.9043-1.17163Z"/><path d="M384.97754,1515.04858q2.56787,3.06189,5.16895,6.10254l3.03906-2.6001q-2.58691-3.02527-5.14258-6.072Z"/><path d="M374.82422,1502.68652q2.50635,3.11462,5.0459,6.20728l3.09082-2.53906q-2.52686-3.07727-5.01953-6.17554Z"/><path d="M395.374,1527.20068q2.62793,3.00952,5.28906,5.99658l2.98633-2.66064q-2.647-2.9718-5.26172-5.96655Z"/><path d="M364.9209,1490.12158q2.44336,3.16479,4.9209,6.30762l3.1416-2.47607q-2.46533-3.12744-4.89648-6.27637Z"/><path d="M406.01172,1539.13989q2.68652,2.95532,5.40625,5.88769l2.93359-2.72021q-2.707-2.9176-5.38086-5.8584Z"/><path d="M327.874,1437.92285q2.18262,3.35449,4.40137,6.68848l3.33008-2.2168q-2.20752-3.31641-4.37793-6.65332Z"/><path d="M336.74219,1451.25293q2.25,3.30762,4.53418,6.59619l3.28516-2.28174q-2.272-3.27173-4.51074-6.564Z"/><path d="M319.27344,1424.416q2.11523,3.397,4.26758,6.77588l3.374-2.14893q-2.1416-3.36035-4.24512-6.74121Z"/><path d="M525.01855,1646.22461q3.22119,2.36353,6.47168,4.70044l2.334-3.248q-3.23437-2.32507-6.43848-4.677Z"/><path d="M538.0127,1655.56592q3.27246,2.30457,6.5752,4.58227l2.27148-3.293q-3.28711-2.26648-6.54395-4.55982Z"/><path d="M487.07324,1616.60181q3.08643,2.55945,6.20117,5.09326l2.52344-3.10352q-3.10107-2.52136-6.16992-5.06812Z"/><path d="M462.78809,1595.61694q2.97949,2.681,5.99316,5.3374l2.64453-3.00073q-2.99854-2.64258-5.96191-5.3103Z"/><path d="M450.96582,1584.76392q2.92529,2.74072,5.88379,5.45654l2.70508-2.947q-2.94434-2.70154-5.85449-5.42847Z"/><path d="M439.36328,1573.676q2.87109,2.79858,5.77344,5.57275l2.76367-2.89111q-2.88721-2.76086-5.74414-5.54565Z"/><path d="M474.82617,1606.23047q3.03223,2.621,6.09766,5.21631l2.584-3.05273q-3.04834-2.58215-6.06641-5.18994Z"/><path d="M310.94531,1410.73682q2.04785,3.43945,4.13086,6.86084l3.416-2.08105q-2.07275-3.40283-4.10937-6.82568Z"/><path d="M232.56641,1218.80176l-3.84766,1.09473q1.09717,3.85693,2.2334,7.70313l3.83594-1.13281Q233.65723,1222.63916,232.56641,1218.80176Z"/><path d="M237.08594,1234.1084l-3.82422,1.1709q1.17334,3.8335,2.38574,7.65723l3.8125-1.21Q238.25293,1237.9231,237.08594,1234.1084Z"/><path d="M241.91113,1249.32031l-3.80078,1.24707q1.24951,3.80933,2.53809,7.60644l3.78711-1.28418Q243.15527,1253.11035,241.91113,1249.32031Z"/><path d="M228.34961,1203.40674l-3.86816,1.01807q1.01953,3.87891,2.08008,7.74707l3.85742-1.05713Q229.36426,1207.26587,228.34961,1203.40674Z"/><path d="M224.44141,1187.9292l-3.88867.94043q.94336,3.89795,1.92578,7.7876l3.87891-.97949Q225.37891,1191.80762,224.44141,1187.9292Z"/><path d="M211.90039,1125.31934l-3.9502.62939q.62988,3.9624,1.30078,7.918l3.94336-.66748Q212.52783,1129.26318,211.90039,1125.31934Z"/><path d="M553.45605,1661.35718l-2.24219,3.3125.31445.21167q3.18311,2.14783,6.38086,4.26074l2.20508-3.33691q-3.18018-2.10278-6.35645-4.24463Z"/><path d="M214.56836,1141.06494l-3.9375.70752q.709,3.94775,1.459,7.89063l3.92969-.74707Q215.27393,1144.9939,214.56836,1141.06494Z"/><path d="M280.41113,1354.41406q1.7666,3.59473,3.56934,7.17334l3.57227-1.7998q-1.79443-3.561-3.55176-7.1377Z"/><path d="M277.1123,1338.26856l-3.625,1.69238q1.69482,3.62988,3.42578,7.24414l3.60742-1.72852Q278.79785,1341.88037,277.1123,1338.26856Z"/><path d="M258.18262,1294.3291l-3.71875,1.47168q1.47363,3.72656,2.98535,7.43848l3.70508-1.50781Q259.6499,1298.03711,258.18262,1294.3291Z"/><path d="M1101.42969,1791.531l.50977,3.96753q3.98145-.512,7.95508-1.06274l-.54883-3.96216Q1105.39062,1791.02185,1101.42969,1791.531Z"/><path d="M264.20117,1309.103l-3.68945,1.54541q1.54834,3.69507,3.13379,7.377l3.67383-1.58252Q265.7417,1312.78,264.20117,1309.103Z"/><path d="M270.51172,1323.75147l-3.6582,1.61865q1.62158,3.66357,3.28125,7.3125l3.64063-1.65625Q272.12451,1327.39648,270.51172,1323.75147Z"/><path d="M302.8916,1396.8916q1.97754,3.48047,3.99219,6.94336l3.457-2.01172q-2.00391-3.44531-3.97266-6.9082Z"/><path d="M941.69824,1800.00708q4.00635.28821,8.0127.53613l.24609-3.99243q-3.98584-.24683-7.97168-.53345Z"/><path d="M925.69141,1798.69385q3.999.36877,8,.69678l.32617-3.98682q-3.98-.32593-7.959-.69287Z"/><path d="M957.72754,1800.999q4.01074.20764,8.02148.37524l.166-3.99658q-3.99023-.16663-7.98047-.37329Z"/><path d="M209.54395,1109.52295l-3.96094.55029q.55078,3.97485,1.14258,7.94385l3.957-.59033Q210.09375,1113.47827,209.54395,1109.52295Z"/><path d="M862.01465,1790.23535q3.95947.68884,7.9209,1.33716l.64648-3.94751q-3.94189-.64526-7.88184-1.33057Z"/><path d="M893.76953,1795.10523q3.98291.52917,7.96777,1.01733l.48633-3.97021q-3.96387-.486-7.92676-1.01245Z"/><path d="M973.77246,1801.66919q4.01367.12744,8.02441.21484l.08789-3.999q-3.9917-.08679-7.98535-.21387Z"/><path d="M989.82324,1802.0188q4.01367.04724,8.02539.0542l.00586-4q-3.9917-.007-7.98437-.0542Z"/><path d="M1069.66894,1794.97241l.35156,3.98462q3.999-.35266,7.99316-.74512l-.39062-3.981Q1073.64746,1794.62134,1069.66894,1794.97241Z"/><path d="M564.64648,1673.54761q3.38232,2.18811,6.7793,4.33813l2.13867-3.37988q-3.37939-2.139-6.74609-4.31689Z"/><path d="M1085.56641,1793.40991l.43164,3.97656q3.98877-.43213,7.97559-.90405l-.4707-3.97241Q1089.5376,1792.97949,1085.56641,1793.40991Z"/><path d="M1005.84473,1798.04712l.0332,4q4.0166-.033,8.0293-.1062l-.07227-3.99951Q1009.8418,1798.01428,1005.84473,1798.04712Z"/><path d="M846.21484,1787.32153q3.94482.76831,7.89355,1.49658l.72559-3.93359q-3.93018-.72473-7.85352-1.48926Z"/><path d="M1037.791,1797.14624l.19238,3.99536q4.00928-.193,8.01758-.42627l-.23242-3.99316Q1041.78125,1796.954,1037.791,1797.14624Z"/><path d="M1053.74219,1796.21851l.27148,3.99072q4.00488-.27319,8.00684-.58618l-.3125-3.98779Q1057.72656,1795.9469,1053.74219,1796.21851Z"/><path d="M663.16406,1727.96118q3.65039,1.69446,7.31152,3.34912l1.64746-3.645q-3.64307-1.64648-7.27539-3.33227Z"/><path d="M677.82031,1734.58569q3.68408,1.62048,7.377,3.20117l1.57422-3.67725q-3.67529-1.57288-7.33984-3.18506Z"/><path d="M648.64355,1721.042q3.6167,1.76733,7.24414,3.49609l1.7207-3.61133q-3.61084-1.71973-7.207-3.47852Z"/><path d="M578.24707,1682.156q3.4248,2.12073,6.86328,4.20264l2.07227-3.42163q-3.42187-2.072-6.83008-4.18189Z"/><path d="M634.26172,1713.83228q3.58008,1.83984,7.17188,3.64111l1.793-3.57568q-3.57422-1.79224-7.13672-3.623Z"/><path d="M707.5127,1746.94141q3.74561,1.47034,7.499,2.90064l1.42383-3.73779q-3.73389-1.4231-7.46-2.88623Z"/><path d="M620.02637,1706.33521q3.54346,1.912,7.09961,3.78442l1.86328-3.53955q-3.53906-1.86291-7.06445-3.76514Z"/><path d="M737.67383,1758.08716q3.7998,1.31763,7.6084,2.595l1.27148-3.79248q-3.78955-1.27075-7.56934-2.58179Z"/><path d="M783.68652,1772.49585q3.87158,1.08472,7.749,2.12891l1.041-3.86255q-3.85986-1.03894-7.71-2.11792Z"/><path d="M768.25488,1768.00366q3.84814,1.16272,7.70508,2.28516l1.11719-3.84058q-3.83643-1.11694-7.666-2.27368Z"/><path d="M722.53809,1752.6665q3.772,1.39453,7.55371,2.74853l1.34961-3.76562q-3.76318-1.34766-7.5166-2.73486Z"/><path d="M814.80273,1780.54028q3.91113.92725,7.82813,1.81421l.88281-3.90137q-3.89648-.88184-7.78711-1.80493Z"/><path d="M752.91406,1763.2002q3.82617,1.24036,7.6582,2.44043l1.19531-3.81714q-3.813-1.19385-7.61914-2.42847Z"/><path d="M830.47559,1784.0896q3.92725.84814,7.86133,1.65576l.80469-3.91821q-3.9126-.80383-7.82227-1.64771Z"/></svg>