<svg xmlns="http://www.w3.org/2000/svg" viewBox="0 0 2000 2000"><path d="M1000,1700.5c-16.60352,0-33.38379-.58813-49.874-1.748l.07031-.99756C966.66357,1698.9126,983.41992,1699.5,1000,1699.5c103.12842,0,202.44385-21.92017,295.18848-65.15137a701.8003,701.8003,0,0,0,233.16113-175.91431l.75488.65576a702.79051,702.79051,0,0,1-233.49365,176.1648C1202.73291,1678.54834,1103.27539,1700.5,1000,1700.5Z"/><path d="M815.624,1675.98193c-189.63428-51.60156-349.89258-181.8894-439.68359-357.4563l.89063-.45557c89.6626,175.31689,249.69238,305.41919,439.05566,356.947Z"/><path d="M345.96582,1251.40405a700.55831,700.55831,0,0,1,32.47754-574.77563l.88672.4624a701.45132,701.45132,0,0,0-32.43066,573.95435Z"/><path d="M449.21436,568.74878l-.78711-.61719a701.02372,701.02372,0,0,1,373.95068-245.915l.25293.96753a700.02079,700.02079,0,0,0-373.4165,245.5647Z"/><path d="M1462.67871,475.3667a696.675,696.675,0,0,0-387.83789-170.90991l.10547-.99438a697.67732,697.67732,0,0,1,388.39453,171.15454Z"/><path d="M1620.6709,677.09229a701.88053,701.88053,0,0,0-45.63477-75.491l.82129-.57031a702.85647,702.85647,0,0,1,45.70019,75.59888Z"/><path d="M1654.03613,1251.39966l-.93359-.35889A696.58186,696.58186,0,0,0,1699.5,1000a707.60316,707.60316,0,0,0-7.86572-105.24658l.98926-.14941A708.62594,708.62594,0,0,1,1700.5,1000,697.584,697.584,0,0,1,1654.03613,1251.39966Z"/></svg>