<svg xmlns="http://www.w3.org/2000/svg" viewBox="0 0 2000 2000"><path d="M1650.49695,999.5A649.94515,649.94515,0,0,0,1000.5,349.50293V349.5h-1v.00293A649.94494,649.94494,0,0,0,349.50305,999.5H349.5v1h.00305A649.94515,649.94515,0,0,0,999.5,1650.49707V1650.5h1v-.00293A649.94639,649.94639,0,0,0,1650.49695,1000.5H1650.5v-1Zm-60.0155,104.61816a597.67471,597.67471,0,0,1-131.2334,281.23633,604.76419,604.76419,0,0,1-73.89356,73.89356q-7.50476,6.304-15.22607,12.36963a598.51106,598.51106,0,0,1-165.03272,91.876q-12.25488,4.46155-24.73761,8.39087a598.0171,598.0171,0,0,1-63.386,16.19946q-6.41647,1.27039-12.853,2.39746-3.2038.561-6.41742,1.0874a604.80777,604.80777,0,0,1-71.509,7.36353q-13.09195.56689-26.19269.56763-13.09277,0-26.19214-.56763a604.80855,604.80855,0,0,1-71.50861-7.36353q-3.2135-.52624-6.41742-1.0874-6.43588-1.1272-12.85345-2.39746-6.41666-1.27-12.80951-2.68213-3.196-.70605-6.38477-1.447-22.321-5.18738-44.192-12.07056-12.47507-3.92725-24.73682-8.39062-24.50244-8.92017-48.28821-20.02979-23.73047-11.08337-46.41248-24.20142a602.41243,602.41243,0,0,1-216.17023-213.84009q-1.6647-2.80591-3.29706-5.62646a596.92654,596.92654,0,0,1-79.66968-273.604q-.567-13.092-.56763-26.19189,0-13.09277.56763-26.19189a603.91694,603.91694,0,0,1,8.45142-77.92627A595.31726,595.31726,0,0,1,480.7373,700.2041q1.63229-2.82056,3.29706-5.62646A602.4068,602.4068,0,0,1,700.20459,480.7373q19.79837-11.45508,40.49475-21.39795c17.708-8.50732,35.8291-16.14307,54.20593-22.833q12.25433-4.46118,24.73682-8.39062,21.83139-6.873,44.192-12.0708,3.18878-.74048,6.38477-1.44678,6.39185-1.41138,12.80951-2.68213,6.41666-1.27,12.85345-2.39746,3.2038-.561,6.41742-1.0874a605.22981,605.22981,0,0,1,78.05573-7.61182Q990.17722,400.5,1000,400.5q9.81985,0,19.64545.31934a605.22876,605.22876,0,0,1,78.05627,7.61182q3.2135.52661,6.41742,1.0874,6.43561,1.1272,12.853,2.39746a598.01632,598.01632,0,0,1,63.386,16.19922q12.47534,3.928,24.73761,8.39111a598.33169,598.33169,0,0,1,159.86438,87.86084q10.3819,7.97534,20.39441,16.38477A602.38659,602.38659,0,0,1,1519.2627,700.2041a596.90616,596.90616,0,0,1,79.66968,273.604q.56689,13.092.56763,26.19189,0,13.09277-.56763,26.19189A603.94993,603.94993,0,0,1,1590.48145,1104.11816ZM615.54053,1461.293q.62137.51855,1.24591,1.0332c.808.67041,1.61267,1.34473,2.42444,2.01074.89221.73242,1.79175,1.457,2.68842,2.18408.79022.64111,1.57709,1.28613,2.37073,1.92334.93616.752,1.8797,1.49463,2.8205,2.24072.76056.60352,1.51746,1.21045,2.281,1.81006,1.00244.78711,2.01239,1.56543,3.02,2.34619.71027.55078,1.41675,1.10547,2.12952,1.65283,1.07733.82715,2.16223,1.645,3.24524,2.46533.65076.49268,1.29773.99023,1.9505,1.48047q1.91592,1.43848,3.84729,2.85693c.462.34131.92047.687,1.38342,1.02686q2.4201,1.77686,4.85919,3.52783c.1416.10205.28186.20557.42358.30762q5.32159,3.81885,10.72375,7.522c.18237.125.36633.24707.54883.37207q2.41727,1.65308,4.84839,3.28418c.512.34326,1.028.6792,1.54089,1.02051,1.29846.86377,2.59656,1.728,3.90125,2.58154.62878.41113,1.262.81494,1.89215,1.22363,1.19055.77246,2.37988,1.54688,3.5755,2.31079.76489.48853,1.53479.96851,2.3017,1.45361,1.06531.67383,2.12872,1.35083,3.19794,2.01782.84412.52637,1.69318,1.04346,2.53967,1.56567,1.00018.61694,1.99823,1.23755,3.00165,1.84839.882.53687,1.76892,1.06421,2.65338,1.59644.972.58472,1.94208,1.17358,2.91711,1.75268.92462.54907,1.85388,1.08862,2.78107,1.63232.44153.259.88226.51978,1.32434.77759l-24.53174,42.4895a645.52462,645.52462,0,0,1-89.429-62.74707ZM1649.491,998h-49.00024c-.0022-.63818-.00781-1.27686-.012-1.915-.0061-.95068-.00708-1.90137-.01782-2.85205-.01343-1.19727-.03784-2.39453-.05835-3.5918-.01685-.98145-.02832-1.96289-.0498-2.94434-.02661-1.20361-.06421-2.40723-.0979-3.61084-.0271-.97168-.04883-1.94336-.08057-2.915-.04-1.22217-.09155-2.44385-.139-3.666-.037-.95508-.06824-1.90967-.10986-2.86426-.05432-1.24658-.12024-2.49219-.182-3.73828-.04614-.92822-.08643-1.85693-.13672-2.78467-.06909-1.272-.15-2.54248-.227-3.814-.05469-.90332-.10327-1.80762-.16211-2.71094-.093-1.43066-.19849-2.85986-.30176-4.28955-.05322-.73926-.10034-1.479-.15625-2.21826q-.49365-6.51123-1.12671-13.00635c-.06677-.686-.14221-1.37109-.21142-2.05713-.14917-1.47754-.29639-2.95557-.4563-4.43164-.08838-.81592-.18628-1.63037-.278-2.4458-.15125-1.34473-.29932-2.69043-.45947-4.03369-.10388-.87207-.21765-1.74219-.32544-2.61377-.15869-1.2832-.31384-2.56689-.48059-3.84863-.11987-.91992-.24951-1.8374-.37341-2.75635-.16614-1.23145-.32849-2.46387-.50207-3.69385-.13379-.94678-.27734-1.89111-.41553-2.83691-.17529-1.19873-.34643-2.39844-.52869-3.59521-.147-.96484-.30383-1.92773-.45544-2.8916-.18506-1.17578-.36609-2.35254-.558-3.52637-.161-.98486-.33179-1.9668-.49768-2.95068-.17969-1.06543-.35376-2.13232-.53906-3.1958l48.31348-8.51855A653.8543,653.8543,0,0,1,1649.491,998Zm-9.79858-111.30273-48.3125,8.51855c-.22571-1.28223-.46411-2.563-.69824-3.84424-.13843-.75732-.27136-1.51514-.41272-2.272-.255-1.36426-.52161-2.72705-.78613-4.08984-.15027-.7749-.295-1.55029-.44861-2.32471-.265-1.3374-.542-2.67285-.81628-4.00879-.16394-.79785-.322-1.59717-.48914-2.39453-.275-1.312-.56177-2.62109-.8457-3.93115-.17737-.81934-.34888-1.63916-.52979-2.457-.28894-1.30713-.58984-2.61182-.88757-3.917-.18652-.81787-.36706-1.63672-.55713-2.4541-.3136-1.34863-.63953-2.69531-.96252-4.042-.18481-.76953-.36328-1.541-.5509-2.31006-.36511-1.49609-.7428-2.98877-1.11938-4.48193-.15564-.61719-.30554-1.23633-.46314-1.853q-.74762-2.92456-1.52673-5.84082-.13916-.52222-.27942-1.04346-.76959-2.86816-1.56482-5.72949c-.21814-.78174-.44556-1.56055-.66687-2.3418-.37122-1.30957-.73926-2.62109-1.11926-3.92822-.27649-.95117-.56348-1.89893-.84461-2.84814-.33606-1.13477-.66748-2.271-1.01013-3.40332-.2998-.99072-.61011-1.978-.915-2.96729-.3352-1.0874-.66589-2.17676-1.00732-3.26221-.31567-1.00342-.6416-2.00293-.9624-3.00439-.342-1.06787-.67944-2.13672-1.02734-3.20166-.32044-.98145-.65088-1.958-.97632-2.9375-.36023-1.0835-.71631-2.16943-1.08276-3.251-.325-.959-.65967-1.91455-.9895-2.87158-.37707-1.09424-.75024-2.19043-1.13354-3.28174-.33521-.95459-.67981-1.90527-1.01977-2.85742-.36084-1.01123-.71607-2.02441-1.08228-3.03271l46.07129-16.76807A641.86008,641.86008,0,0,1,1639.69238,886.69727ZM1598.459,747.18555q6.32666,14.95459,11.875,30.13965l-46.07129,16.76758c-.4137-1.1333-.83935-2.26318-1.26025-3.39453-.302-.812-.59863-1.625-.9043-2.436-.46753-1.23975-.94629-2.47656-1.42249-3.71436-.30335-.78857-.6012-1.57861-.908-2.36572-.49036-1.25879-.99207-2.51367-1.49109-3.769-.30322-.7627-.60059-1.52686-.907-2.28857-.52148-1.29639-1.05457-2.58838-1.58545-3.88184-.29419-.7168-.58276-1.43555-.87988-2.15137-.56836-1.36963-1.14844-2.73437-1.72705-4.09961-.26953-.63623-.5332-1.27393-.80493-1.90918-.64795-1.51416-1.30786-3.02393-1.96851-4.5332-.21118-.48242-.41724-.96729-.62964-1.44922q-1.23926-2.811-2.50928-5.60986c-.05225-.11523-.10254-.231-.15466-.3457q-2.7074-5.96558-5.54553-11.873c-.07678-.15967-.156-.31836-.233-.47852q-1.30041-2.70044-2.62561-5.38965c-.24768-.50146-.502-1-.7511-1.501-.71973-1.44678-1.43958-2.894-2.17078-4.335-.32349-.6377-.65454-1.271-.98035-1.90723-.66589-1.30078-1.3302-2.60254-2.00562-3.89844-.35767-.686-.72327-1.36816-1.0835-2.05273-.65344-1.24219-1.30481-2.48535-1.96692-3.72266-.37878-.70752-.76538-1.41064-1.147-2.1167-.65234-1.20752-1.30249-2.416-1.96289-3.61865-.40637-.73975-.82056-1.47461-1.23-2.2124-.6449-1.1626-1.28735-2.32666-1.93994-3.48437-.42163-.74854-.85108-1.4917-1.276-2.23779-.60364-1.06055-1.20312-2.12354-1.81311-3.17969l42.48828-24.53027A649.94924,649.94924,0,0,1,1598.459,747.18555Zm-36.09277-72.44531-42.48828,24.53125c-.58691-1.0127-1.18506-2.02-1.7782-3.0293-.45862-.78076-.91223-1.56348-1.37463-2.3418-.66394-1.11865-1.33838-2.23145-2.01-3.34619-.44751-.74219-.88989-1.48682-1.34058-2.22754-.70081-1.15137-1.41211-2.29736-2.12109-3.44482-.43237-.69971-.8595-1.40186-1.29492-2.1001-.73962-1.186-1.49-2.3667-2.23828-3.54785-.41431-.65381-.82324-1.311-1.24-1.96338-.79419-1.24316-1.59912-2.48-2.40259-3.71777-.38013-.58545-.755-1.17432-1.13721-1.7583q-1.33777-2.04565-2.698-4.07715c-.30164-.45312-.59863-.90918-.90161-1.36182q-1.61243-2.40747-3.251-4.79883c-.13745-.20117-.27222-.4043-.41016-.605q-3.70056-5.39941-7.51855-10.71875c-.17627-.24561-.356-.48877-.53247-.73389q-1.63953-2.2771-3.297-4.5415c-.42908-.58447-.86536-1.16357-1.29651-1.74658-.86255-1.166-1.72314-2.333-2.594-3.49316-.5105-.67969-1.02856-1.35352-1.54175-2.03076-.79956-1.05566-1.59619-2.11279-2.40247-3.1626-.57983-.75537-1.1676-1.50391-1.751-2.25635-.74756-.96387-1.49182-1.93018-2.245-2.88965-.63123-.80371-1.27051-1.60107-1.90576-2.40137-.71509-.90137-1.427-1.80566-2.14722-2.70264-.65991-.82227-1.32764-1.63672-1.9917-2.45508-.70459-.86816-1.40552-1.73926-2.11475-2.603-.683-.832-1.37378-1.65723-2.061-2.48535-.6488-.78174-1.293-1.56738-1.94556-2.34521l37.56738-31.52246A645.37565,645.37565,0,0,1,1562.36621,674.74023Zm-65.1084-92.64258-37.56543,31.52246c-.75073-.89258-1.51123-1.77734-2.26758-2.66553-.5918-.69531-1.17932-1.39355-1.77466-2.08643-.81445-.94775-1.63794-1.88867-2.45874-2.83154-.60571-.69629-1.20715-1.39551-1.81628-2.08936-.8396-.95557-1.68835-1.9043-2.5343-2.855-.59741-.67139-1.19043-1.34668-1.79114-2.01562-.86267-.96143-1.73474-1.91455-2.60388-2.87061-.59448-.65332-1.18433-1.311-1.78174-1.96191-.90039-.98193-1.81006-1.95557-2.71728-2.93115-.57275-.61621-1.14111-1.23633-1.71667-1.85059-.96179-1.02588-1.933-2.04346-2.902-3.063-.53015-.55762-1.05566-1.11963-1.58789-1.67529q-1.63879-1.71021-3.29565-3.40381c-.41577-.42725-.8269-.8584-1.2439-1.28467q-4.56995-4.66919-9.24-9.23975c-.355-.34717-.7146-.68994-1.07043-1.03662q-1.804-1.75708-3.618-3.50244c-.54126-.51855-1.08838-1.03027-1.63147-1.54639-1.032-.98145-2.06238-1.96436-3.101-2.938-.6311-.5918-1.26843-1.17578-1.90186-1.76465-.95972-.89209-1.91724-1.78662-2.88245-2.67187-.65906-.605-1.32446-1.20215-1.98621-1.80371-.94678-.86084-1.89136-1.72461-2.84326-2.5791-.68286-.61328-1.37183-1.21826-2.05713-1.82812-.938-.834-1.87353-1.67139-2.81641-2.49951-.696-.61133-1.39795-1.21484-2.09656-1.82275-.94043-.81885-1.87854-1.63965-2.82373-2.45215-.69959-.60107-1.40466-1.19434-2.10657-1.792q-.75147-.64014-1.50305-1.27881l31.52173-37.56494q20.78265,17.59277,40.22131,37.01953Q1479.22559,560.69434,1497.25781,582.09766Zm-81.27478-80.958L1384.45947,538.707q-.73865-.6167-1.48132-1.22852c-.72546-.60156-1.44714-1.20654-2.17541-1.80469-.95679-.78516-1.92114-1.562-2.88306-2.3418-.72669-.58936-1.44971-1.18262-2.17944-1.76807-.99341-.79785-1.99438-1.58643-2.99316-2.37842-.7041-.55762-1.40454-1.12012-2.11133-1.67529-1.048-.82275-2.10352-1.63672-3.157-2.45264-.66577-.51562-1.32764-1.03613-1.99561-1.54883-1.10645-.84961-2.22058-1.68994-3.333-2.53174-.62256-.47119-1.24121-.94727-1.86548-1.416-1.21069-.90918-2.429-1.80811-3.64648-2.708-.532-.39355-1.0603-.7915-1.59363-1.18311q-2.08722-1.53223-4.19067-3.04248c-.36585-.26367-.72864-.53125-1.09485-.79443q-5.31152-3.81152-10.70312-7.50781c-.41675-.28564-.83716-.56543-1.25452-.8501q-2.06928-1.41064-4.14636-2.80908c-.62085-.41553-1.24634-.82373-1.86865-1.23682-1.18848-.78955-2.37573-1.58154-3.56958-2.3623-.71411-.46729-1.43311-.92578-2.149-1.39014-1.10754-.71777-2.21313-1.43848-3.325-2.14844-.77039-.49219-1.54565-.97559-2.318-1.46387-1.063-.67236-2.124-1.34766-3.19092-2.01318-.80469-.502-1.61426-.99463-2.421-1.49268-1.0404-.64209-2.079-1.2876-3.12292-1.92285-.82434-.502-1.65332-.99463-2.47974-1.49219-1.03223-.62158-2.06262-1.24609-3.09814-1.86133-.844-.501-1.69238-.99316-2.53845-1.48975-.94836-.55713-1.89416-1.11865-2.84509-1.67041l24.53125-42.48828A645.412,645.412,0,0,1,1415.983,501.13965ZM1252.81445,401.541a649.90967,649.90967,0,0,1,71.5791,35.59229l-24.53027,42.48779c-1.06177-.61279-2.13013-1.21533-3.196-1.82227-.73926-.4209-1.47571-.84619-2.217-1.26416-1.175-.66211-2.3562-1.31445-3.53589-1.96875-.7218-.40039-1.44043-.80566-2.16394-1.20312-1.23071-.67578-2.46765-1.34131-3.70325-2.00879-.67676-.36572-1.35034-.73584-2.02856-1.09912-1.32483-.709-2.65576-1.40723-3.98621-2.106-.59412-.3125-1.18543-.62988-1.78088-.93994-1.41968-.74023-2.84534-1.46875-4.27112-2.19775-.51294-.26221-1.02332-.5293-1.537-.79q-2.48254-1.25977-4.97876-2.49268c-.28491-.1416-.56812-.28662-.85339-.42725q-8.81158-4.35205-17.7605-8.41357c-.03064-.01367-.06165-.02734-.09241-.0415q-2.92383-1.32642-5.86084-2.62109c-.47583-.21-.9541-.41309-1.43018-.62158-1.51428-.6626-3.02881-1.32471-4.54785-1.97461-.66492-.28467-1.33276-.561-1.99866-.84277-1.33557-.56592-2.67041-1.1333-4.00964-1.68945-.73975-.30664-1.48242-.605-2.22327-.90918-1.26916-.52051-2.53748-1.04395-3.80981-1.55566-.8103-.32617-1.62366-.64307-2.43518-.96533-1.20276-.47754-2.40436-.9585-3.60974-1.42822-.88019-.34277-1.76337-.67627-2.645-1.01465-1.14294-.43945-2.28473-.88184-3.42981-1.31348-.908-.34277-1.81873-.67529-2.72809-1.0127-1.041-.38672-2.08038-.7793-3.123-1.15967l16.76855-46.0708Q1237.856,395.21436,1252.81445,401.541Zm-31.07812-12.2168-16.76855,46.07129c-1.04163-.37793-2.08813-.74512-3.13232-1.11768-.917-.32715-1.83173-.65869-2.75067-.98145-1.15063-.4043-2.30572-.79785-3.45935-1.19482-.89618-.30859-1.7901-.62207-2.688-.92627-1.19763-.40576-2.39954-.80078-3.60022-1.19922-.86011-.28516-1.718-.57568-2.57965-.85742-1.25738-.41064-2.519-.81006-3.7796-1.2124-.808-.2583-1.614-.522-2.42334-.77637-1.34589-.42334-2.696-.835-4.04517-1.249-.72864-.22363-1.45508-.45312-2.18463-.67383-1.573-.47607-3.15015-.93994-4.72748-1.40332-.50629-.14844-1.01086-.30273-1.51764-.44971q-2.99167-.87012-5.99347-1.708c-.09418-.02637-.18787-.05371-.282-.08008q-6.31366-1.76147-12.66669-3.38525c-.04156-.01074-.08331-.021-.12488-.03125q-3.09906-.79175-6.20618-1.55029c-.47345-.11572-.94836-.22461-1.42212-.33887-1.64215-.39648-3.28461-.7915-4.92993-1.17432-.62415-.145-1.24982-.28223-1.87439-.42578-1.49616-.34277-2.99206-.686-4.4906-1.01758-.728-.16064-1.45764-.313-2.18616-.47119-1.396-.30322-2.79169-.6084-4.18951-.90137-.81616-.1709-1.63379-.333-2.45056-.50049-1.311-.269-2.62158-.541-3.93408-.80127-.88971-.17627-1.78076-.34326-2.67108-.51514-1.24139-.24023-2.48218-.48389-3.72467-.71631-.9314-.17383-1.86407-.33789-2.796-.50781-1.11774-.20312-2.23468-.41211-3.35321-.60889l8.51855-48.3125A641.89537,641.89537,0,0,1,1221.73633,389.32422Zm-109.41894-29.189-8.51758,48.3125c-1.10828-.19287-2.21979-.37451-3.32983-.56152-.93634-.15771-1.87122-.32031-2.80872-.47363-1.22138-.19971-2.44562-.38867-3.66894-.58057-.91589-.144-1.83045-.293-2.74738-.43262-1.23175-.1875-2.466-.36426-3.69959-.54395-.91339-.1333-1.82562-.27246-2.74-.40137-1.28369-.18115-2.56988-.35107-3.85541-.52393-.86218-.11621-1.72308-.23828-2.586-.35059-1.38379-.18018-2.7699-.34814-4.15558-.519-.76923-.09473-1.53742-.19531-2.30719-.28711-1.48193-.17676-2.96606-.34082-4.45-.50684-.67676-.07568-1.35236-.15723-2.02954-.23047q-2.703-.293-5.4104-.55713c-.358-.03564-.71521-.07568-1.07318-.11035q-6.50693-.63428-13.03223-1.12891c-.45148-.03418-.90357-.0625-1.3551-.0957-1.71912-.12646-3.43854-.251-5.159-.36279-.70337-.0459-1.40735-.083-2.1109-.126-1.4693-.09082-2.93842-.18262-4.40851-.2627-.83655-.04541-1.67364-.08105-2.51037-.123-1.33569-.06689-2.67114-.13721-4.0072-.19531-.93005-.04053-1.86041-.0708-2.79065-.10693-1.24481-.04834-2.4895-.10059-3.73456-.1416-.9718-.03174-1.9436-.05322-2.91547-.08057-1.20325-.03369-2.4065-.07129-3.60986-.09766-1.01135-.02246-2.02258-.03418-3.03394-.05176-1.16339-.01953-2.32691-.04346-3.49023-.05664-1.03247-.01123-2.0647-.0127-3.097-.019-1.061-.00635-2.12219-.019-3.183-.02v-49A653.99223,653.99223,0,0,1,1112.31738,360.13525ZM999.5,350.5v49c-1.06085.001-2.122.01367-3.183.02-1.03229.00635-2.06451.00781-3.09692.019-1.16339.01318-2.3269.03711-3.49042.05664-1.01117.01758-2.0224.0293-3.03357.05176-1.20288.02637-2.40564.064-3.60852.09766-.97235.02734-1.9447.04883-2.91687.08057-1.24347.04053-2.48651.09326-3.72968.1416-.93182.03613-1.86377.06641-2.79541.10693-1.33325.05811-2.66589.12793-3.99872.19482-.8396.04248-1.6795.07813-2.51886.12354-1.46527.07959-2.92975.17188-4.39429.26172-.70831.04346-1.41705.08105-2.12518.127-1.71112.11133-3.42108.23535-5.13086.36084-.46094.03418-.92236.063-1.38318.09766q-6.52322.49438-13.03009,1.12891c-.4024.03906-.804.084-1.20624.124-1.75977.1748-3.51917.35254-5.27655.543-.71521.07764-1.429.16357-2.1438.24365-1.44543.16162-2.89117.32129-4.33478.49365-.81024.09668-1.61871.20264-2.42834.30225-1.3446.166-2.68982.3291-4.03265.50391-.911.11865-1.81995.24707-2.73016.36963-1.23669.167-2.47418.33008-3.70923.50439-.96613.13623-1.92987.28271-2.8949.42383-1.181.17285-2.363.34131-3.5423.521-.97485.14844-1.94708.30664-2.92072.46-1.16461.18311-2.33026.3623-3.493.55273-1.00256.16357-2.00232.3374-3.00348.50635-1.049.17676-2.09961.34814-3.147.53076l-8.51855-48.3125A653.99222,653.99222,0,0,1,999.5,350.5Zm-112.80273,9.80762,8.519,48.3125c-1.09351.19238-2.18549.39648-3.27826.59521-.9585.17432-1.9176.34326-2.87543.52246-1.22064.228-2.43964.46777-3.65918.70361-.91235.17627-1.8255.34717-2.73718.52783-1.26221.25049-2.52252.51221-3.78339.77051-.86914.17822-1.73914.35059-2.60754.53271-1.31335.27539-2.62451.5625-3.93622.84668-.81317.17627-1.62744.34668-2.43994.52637-1.39587.30859-2.78912.62939-4.183.94775-.72687.1665-1.455.32617-2.18127.49512-1.56885.36475-3.13495.74219-4.701,1.11963-.548.13232-1.09717.25879-1.64484.39209q-2.88007.70313-5.75244,1.437c-.19366.04932-.38794.0957-.58148.14551q-6.34726,1.62158-12.65686,3.38232c-.17419.04883-.3476.1001-.52173.14893q-2.87823.80566-5.74829,1.6377c-.59723.17383-1.19183.355-1.78845.53027-1.48944.438-2.97919.876-4.46472,1.3252-.72418.21924-1.44543.44727-2.16864.66895-1.355.41553-2.71094.8291-4.06262,1.25439-.79724.251-1.59113.51074-2.38708.76465-1.27258.40625-2.5462.80957-3.81561,1.22412-.8653.28271-1.72687.57471-2.59064.86133-1.19525.39648-2.39185.78955-3.58411,1.19385-.89014.30127-1.77631.6123-2.66473.918-1.16522.40088-2.33185.79883-3.49408,1.207-.89655.31445-1.78912.63867-2.68378.95752-1.06366.37939-2.12964.75391-3.19061,1.13867l-16.769-46.07129A641.89,641.89,0,0,1,886.69727,360.30762ZM747.18555,401.541q14.95459-6.32593,30.13916-11.87451l16.769,46.07129c-1.04211.38037-2.08093.77246-3.12134,1.15869-.91.33789-1.82135.6709-2.73,1.01367-1.1438.43115-2.28436.87354-3.426,1.312-.88287.33887-1.76733.67285-2.64886,1.01611-1.18713.46289-2.37054.93652-3.55518,1.40674-.83136.33008-1.66449.65479-2.49463.98877-1.23322.49609-2.46246,1.00342-3.69281,1.5083-.77991.31982-1.56171.63379-2.34039.957-1.2898.53516-2.57532,1.082-3.86176,1.62646-.71509.30273-1.43237.59961-2.14642.90527-1.42853.61133-2.85248,1.23438-4.27661,1.85693-.56732.248-1.13684.49023-1.70343.74023q-2.48849,1.09717-4.96588,2.22119c-.33093.14941-.66345.29443-.99414.44482q-5.95679,2.70337-11.856,5.5376c-.32593.15625-.6496.31738-.97522.47461q-2.45087,1.18286-4.89294,2.38379c-.62872.31055-1.25354.62842-1.88116.94141-1.3175.65625-2.63593,1.311-3.94849,1.97705-.78113.39648-1.5575.80127-2.33685,1.20117-1.15619.59326-2.31415,1.18311-3.46637,1.7832-.84308.43945-1.681.88818-2.52185,1.33105-1.08136.57031-2.16479,1.13672-3.24249,1.71338-.90546.48438-1.80542.97852-2.70825,1.46729-1.00641.54541-2.01508,1.08643-3.01813,1.63721-.96124.52783-1.91681,1.06543-2.87494,1.59814-.93768.522-1.87787,1.03955-2.8125,1.56592-.99762.562-1.98926,1.13379-2.98334,1.70117-.82648.47217-1.65649.93848-2.48047,1.41455L675.606,437.1333A649.95986,649.95986,0,0,1,747.18555,401.541Zm-72.44531,36.09277,24.53125,42.48828c-.875.50732-1.74512,1.0249-2.61792,1.53711-.92719.54395-1.85645,1.083-2.78107,1.63232-.98621.58545-1.96735,1.18115-2.95056,1.77295-.87195.52441-1.74615,1.04443-2.61572,1.57373-1.01721.61914-2.02905,1.248-3.04291,1.87354-.83411.51465-1.67084,1.02441-2.50262,1.543-1.05.65479-2.09436,1.32031-3.14062,1.98145-.78748.498-1.57776.99072-2.3631,1.49268-1.18024.75391-2.35431,1.51855-3.5296,2.28076-.64417.418-1.29132.83057-1.934,1.251-1.30469.85352-2.60278,1.71777-3.90125,2.58154-.51294.34131-1.02893.67725-1.54089,1.02051q-2.43256,1.62891-4.84839,3.28418c-.1825.125-.36646.24707-.54883.37207q-5.40143,3.70239-10.72375,7.522c-.14172.10205-.282.20557-.42358.30762q-2.43768,1.75269-4.85919,3.52783c-.463.33984-.92145.68555-1.38342,1.02686q-1.92746,1.4231-3.84729,2.85693c-.65277.49023-1.29974.98779-1.9505,1.48047-1.083.82031-2.16791,1.63818-3.24524,2.46533-.71277.54736-1.41925,1.10205-2.12952,1.65283-1.00763.78076-2.01758,1.55908-3.02,2.34619-.76355.59961-1.52045,1.20654-2.281,1.81006-.9408.74609-1.88434,1.48877-2.8205,2.24072-.79364.63721-1.58051,1.28223-2.37073,1.92334-.89667.72705-1.7962,1.45166-2.68842,2.18408-.81177.666-1.61639,1.34033-2.42444,2.01074-.80011.66357-1.60431,1.32324-2.4007,1.99121l-31.52246-37.56738A645.54923,645.54923,0,0,1,674.74023,437.63379ZM540.73389,540.73438q19.96069-19.96,41.36426-37.99268l31.522,37.56592c-.796.66992-1.58521,1.34912-2.378,2.02295-.79767.67871-1.59827,1.353-2.39264,2.03564-.86615.74414-1.72559,1.49707-2.58771,2.24707-.77557.67383-1.55414,1.34424-2.32642,2.02246-.87811.77148-1.74921,1.55176-2.623,2.32813-.74908.666-1.50146,1.32715-2.24738,1.99707-.89661.80469-1.78583,1.61865-2.67786,2.4292-.716.65039-1.43561,1.29688-2.14862,1.95068-.94037.86279-1.87286,1.73438-2.808,2.60352-.65643.60986-1.31671,1.21533-1.97046,1.82813q-1.55942,1.46191-3.10376,2.94043c-.54211.51563-1.08838,1.02637-1.6286,1.54395q-1.89789,1.81787-3.77673,3.65625c-.30206.29443-.60748.585-.90894.87988q-4.67221,4.57324-9.24561,9.24561c-.3512.35889-.69739.72217-1.04767,1.082q-1.75131,1.7981-3.4917,3.60645c-.49359.51563-.98071,1.03662-1.47241,1.55371-1.00793,1.05957-2.01733,2.11816-3.01746,3.18506-.54724.5835-1.0874,1.17334-1.6322,1.75879-.93555,1.00635-1.87329,2.01025-2.80176,3.02246-.59241.64551-1.17737,1.29785-1.76685,1.9458-.87225.959-1.747,1.916-2.61279,2.88037-.63629.7085-1.26465,1.42383-1.89734,2.13525-.80829.90869-1.61963,1.81543-2.42212,2.729-.67029.7627-1.3324,1.53223-1.99866,2.29834-.75745.87158-1.51825,1.73975-2.27039,2.61475-.68292.79492-1.35742,1.5957-2.03595,2.39355-.34967.41113-.70068.82129-1.04919,1.2334l-37.56549-31.52148Q521.30728,560.17285,540.73389,540.73438Zm-39.59436,43.28271L538.707,615.54q-.63986.76685-1.27539,1.5376c-.58392.70508-1.17181,1.40576-1.75269,2.11328-.80414.97949-1.59973,1.9668-2.39789,2.95166-.57111.70508-1.1463,1.40576-1.71436,2.11328-.80341,1.00049-1.59808,2.00879-2.39532,3.01514-.55316.69775-1.11066,1.39209-1.66077,2.09277-.819,1.043-1.62891,2.09375-2.44116,3.14209-.51959.6709-1.04376,1.33789-1.56061,2.01074-.84631,1.10254-1.68311,2.21191-2.522,3.32031-.47424.62646-.95331,1.249-1.42517,1.87744-.88452,1.17773-1.759,2.36328-2.63495,3.54785-.41846.56592-.84186,1.12793-1.25836,1.69531q-1.50092,2.04419-2.97992,4.105c-.28381.39355-.572.78369-.85486,1.17773q-3.8107,5.31006-7.50525,10.69971c-.3186.46484-.63092.93359-.94818,1.39893q-1.36185,1.99951-2.713,4.00488c-.415.61963-.8222,1.24365-1.2348,1.86475-.79047,1.18994-1.58289,2.37842-2.36469,3.57373-.47217.72168-.93585,1.44824-1.40485,2.17188-.71228,1.09912-1.42749,2.19629-2.13239,3.2998-.49042.76758-.972,1.54-1.45886,2.31006-.67529,1.06787-1.35388,2.1333-2.02216,3.20508-.4787.76758-.94879,1.53955-1.42383,2.30908-.66632,1.0791-1.33569,2.15674-1.99487,3.23975-.47333.77783-.93787,1.55957-1.40747,2.33936-.65,1.0791-1.303,2.15625-1.94586,3.23877-.4693.79053-.92987,1.585-1.39532,2.377-.5871.99951-1.179,1.99609-1.76,2.99854L437.6333,674.74023A645.50961,645.50961,0,0,1,501.13953,584.01709Zm-99.599,163.16846A649.96314,649.96314,0,0,1,437.1333,675.606l42.48828,24.53076c-.54382.94189-1.07776,1.89014-1.61658,2.835-.49475.86768-.9939,1.73291-1.48444,2.603-.592,1.05078-1.17444,2.10742-1.76025,3.16162-.4696.84521-.94379,1.6875-1.40936,2.53564-.59991,1.09229-1.18976,2.19043-1.783,3.28662-.441.81494-.887,1.62744-1.32434,2.44434-.61938,1.15771-1.22827,2.3208-1.84015,3.48291-.40125.76172-.80762,1.52051-1.20563,2.28418-.65594,1.25879-1.301,2.52295-1.94812,3.78662-.34418.67188-.69379,1.34082-1.03546,2.01465-.71509,1.40918-1.41876,2.82422-2.12274,4.23877-.2652.5332-.53571,1.06348-.79932,1.59766q-1.21838,2.4668-2.41,4.94678c-.14917.30908-.30225.61621-.45087.92578q-2.83411,5.89966-5.53851,11.8584c-.12854.2832-.253.56787-.3811.85156q-1.15247,2.54956-2.28473,5.1084c-.24469.55469-.48212,1.11279-.7251,1.66846-.627,1.43408-1.25452,2.86816-1.87,4.30664-.317.74072-.625,1.48486-.939,2.22656-.533,1.25977-1.06879,2.51855-1.5929,3.78125-.33789.814-.6665,1.63135-1.00073,2.44678-.48907,1.19336-.98145,2.38525-1.46252,3.58105-.36017.89551-.71063,1.79395-1.06635,2.69092-.44336,1.11768-.89056,2.23389-1.327,3.35352-.37317.958-.73621,1.91846-1.10431,2.87793-.40851,1.06494-.82129,2.12793-1.22345,3.19482-.37323.98975-.73615,1.98242-1.10394,2.97363-.35773.96436-.72144,1.92676-1.074,2.89258L389.6665,777.32471Q395.21387,762.14453,401.54053,747.18555Zm-12.2168,31.0791,46.07178,16.76807c-.37445,1.03125-.738,2.06738-1.10681,3.10107-.33063.92676-.66608,1.85156-.99219,2.78027-.39917,1.13672-.7879,2.27832-1.1803,3.418-.31421.9126-.63342,1.82324-.9433,2.7373-.39722,1.17236-.78357,2.34863-1.17358,3.52393-.2934.88379-.592,1.76563-.88129,2.65137-.40167,1.22949-.792,2.46338-1.18573,3.6958-.26746.83691-.54047,1.67188-.80426,2.51025-.41736,1.32666-.823,2.65771-1.2312,3.98779-.229.74609-.46387,1.49023-.68994,2.2373-.45489,1.50293-.89764,3.01025-1.34082,4.51758-.17017.57813-.34583,1.15479-.51422,1.73389q-.80173,2.75757-1.574,5.52393c-.07031.251-.144.501-.214.752q-1.75928,6.30542-3.381,12.65039c-.06836.26758-.13281.53613-.20087.80371q-.70139,2.7605-1.38013,5.52588c-.16248.666-.31671,1.334-.47693,2.00049-.34772,1.44629-.697,2.89209-1.03387,4.34082-.19977.85889-.38971,1.71973-.58563,2.57959-.287,1.25977-.57776,2.51855-.85657,3.77979-.20666.93457-.40308,1.87109-.60522,2.80664-.257,1.18994-.51825,2.37891-.76794,3.56982-.20959,1-.40869,2.00146-.61316,3.002-.22992,1.12549-.46436,2.25049-.68774,3.377-.21313,1.07471-.41534,2.15088-.62244,3.22656-.20306,1.05469-.411,2.1084-.60828,3.16406-.21027,1.125-.40961,2.25146-.61328,3.377-.16943.93652-.34528,1.87207-.51019,2.80908l-48.313-8.51855A641.93826,641.93826,0,0,1,389.32373,778.26465Zm-29.18848,109.418,48.3125,8.51855c-.18628,1.06934-.36121,2.1416-.54175,3.2124-.16486.97754-.33466,1.9541-.49469,2.93311-.195,1.19336-.37909,2.38916-.567,3.584-.14825.94287-.30182,1.88477-.44556,2.82861-.18848,1.2373-.36566,2.47754-.54645,3.7168-.13208.90527-.26965,1.80908-.39764,2.71533-.18024,1.27637-.34882,2.55469-.52094,3.83252-.11749.873-.24084,1.74463-.35461,2.61816-.179,1.37451-.34589,2.75146-.5155,4.12842-.09564.77637-.19727,1.55127-.28992,2.32813-.18518,1.55273-.35785,3.10742-.53107,4.6626-.06726.604-.14038,1.207-.20587,1.81152-.19067,1.75977-.36865,3.52148-.544,5.28369-.04016.40381-.08508.80664-.12445,1.21094q-.63474,6.51123-1.12952,13.04053c-.01251.165-.02258.33057-.03491.49512q-.22522,3.00513-.423,6.01318c-.03973.61035-.07166,1.22119-.1095,1.83154-.0968,1.562-.19427,3.12451-.27905,4.6875-.04077.752-.07269,1.50391-.11072,2.25635-.07184,1.42188-.14593,2.84375-.20782,4.2666-.03632.83447-.06323,1.66943-.09607,2.50391-.05273,1.34033-.10852,2.68066-.1524,4.021-.02887.88135-.04816,1.7627-.07318,2.644-.03674,1.2959-.07678,2.59131-.10522,3.88721-.02.91113-.03046,1.82275-.04633,2.73389-.022,1.26367-.04761,2.52734-.06171,3.79053-.01044.93506-.01123,1.87012-.01739,2.80518-.00757,1.15234-.02051,2.3042-.02148,3.45605h-49A654.033,654.033,0,0,1,360.13525,887.68262ZM350.5,1000.5h49c.001,1.15185.01392,2.30371.02148,3.45605.00616.93506.007,1.87012.01739,2.80517.0141,1.26318.03967,2.52686.06171,3.79053.01587.91113.02631,1.82275.04633,2.73389.02844,1.2959.06848,2.59131.10522,3.88721.025.88135.04431,1.7627.07318,2.644.04388,1.34033.09967,2.68066.1524,4.021.03284.83447.05975,1.66943.09607,2.50391.06189,1.42285.136,2.84473.20782,4.2666.038.75244.06995,1.50439.11072,2.25635.08478,1.563.18225,3.12549.27905,4.6875.03784.61035.06976,1.22119.1095,1.83154q.19556,3.00806.423,6.01318c.01233.16455.0224.33008.03491.49512q.49466,6.52808,1.12952,13.04053c.03937.4043.08429.80713.12445,1.21094.17535,1.76221.35333,3.52392.544,5.28369.06549.60449.13861,1.20752.20587,1.81152.17322,1.55517.34589,3.10986.53107,4.6626.09265.77686.19427,1.55176.28992,2.32813.16962,1.377.33649,2.75391.5155,4.12842.11377.87353.23712,1.74512.35461,2.61816.17212,1.27783.3407,2.55615.52094,3.83252.128.90625.26556,1.81006.39764,2.71533.18079,1.23926.358,2.47949.54645,3.7168.14374.94385.2973,1.88574.44556,2.82861.18787,1.19482.37195,2.39063.567,3.584.16.979.32983,1.95557.49469,2.93311.18054,1.0708.35547,2.14307.54175,3.2124l-48.3125,8.51856A654.033,654.033,0,0,1,350.5,1000.5Zm9.80762,112.80273,48.313-8.51855c.16492.937.34076,1.87256.51019,2.80908.20367,1.12549.403,2.252.61328,3.377.19727,1.05566.40521,2.10938.60828,3.16406.20709,1.07568.4093,2.15186.62244,3.22656.22339,1.12647.45782,2.25147.68774,3.377.20447,1.00049.40356,2.002.61316,3.002.24969,1.19092.51093,2.37988.76794,3.56982.20215.93555.39856,1.87207.60522,2.80664.27881,1.26123.56952,2.52.85657,3.77978.19592.85986.38586,1.7207.58563,2.57959.33685,1.44873.68616,2.89453,1.03387,4.34082.16022.6665.31445,1.33447.47693,2.00049q.67511,2.76636,1.38013,5.52588c.06805.26758.13251.53613.20087.80371q1.62149,6.34424,3.381,12.65039c.07.251.14368.501.214.752q.77545,2.76563,1.574,5.52393c.1684.5791.34406,1.15576.51422,1.73389.44318,1.50732.88593,3.01465,1.34082,4.51758.22607.74707.46094,1.49121.68994,2.2373.4082,1.33008.81384,2.66113,1.2312,3.98779.26379.83838.5368,1.67334.80426,2.51025.39374,1.23242.78406,2.46631,1.18573,3.6958.28925.88574.58789,1.76758.88129,2.65137.39,1.17529.77637,2.35156,1.17358,3.52393.30988.91406.62909,1.82471.9433,2.73731.3924,1.13965.78113,2.28125,1.1803,3.418.32611.92871.66156,1.85352.99219,2.78027.36884,1.03369.73236,2.06982,1.10681,3.10107l-46.07178,16.76807A641.93826,641.93826,0,0,1,360.30762,1113.30273Zm41.23291,139.51172q-6.3252-14.95459-11.874-30.13916l46.07129-16.76807c.35254.96582.71625,1.92822,1.074,2.89258.3678.99121.73071,1.98389,1.10394,2.97363.40216,1.06689.81494,2.12988,1.22345,3.19482.3681.95947.73114,1.91992,1.10431,2.87793.4364,1.11963.88361,2.23584,1.327,3.35352.35571.897.70618,1.79541,1.06635,2.69092.48108,1.1958.97345,2.38769,1.46252,3.58106.33423.81543.66284,1.63281,1.00073,2.44678.52411,1.2627,1.05994,2.52148,1.5929,3.78125.314.7417.622,1.48584.939,2.22656.60657,1.41748,1.22516,2.83057,1.84283,4.24414.25226.57715.499,1.15674.75317,1.7334q1.12326,2.5481,2.27423,5.08447c.13135.29053.25885.583.39069.873q2.704,5.95825,5.53851,11.8584c.14862.30957.3017.6167.45087.92578q1.19568,2.47778,2.41,4.94678c.26361.53418.53412,1.06445.79932,1.59766.704,1.41455,1.40765,2.82959,2.12274,4.23877.34167.67383.69128,1.34277,1.03546,2.01465.64709,1.26367,1.29218,2.52783,1.94812,3.78662.398.76367.80438,1.52246,1.20563,2.28418.61188,1.16211,1.22076,2.3252,1.84015,3.48291.43732.8169.8833,1.6294,1.32434,2.44434.5932,1.09619,1.183,2.19434,1.783,3.28662.46558.84814.93976,1.69043,1.40936,2.53564.58582,1.0542,1.16821,2.11084,1.76025,3.16162.49054.87012.98969,1.73535,1.48444,2.603.53882.94483,1.07275,1.89307,1.61658,2.835L437.1333,1324.394A649.96315,649.96315,0,0,1,401.54053,1252.81445Zm36.09277,72.44531,42.48877-24.53125c.581,1.00244,1.17291,1.999,1.76,2.99854.46545.792.926,1.58643,1.39532,2.377.64282,1.08252,1.2959,2.15967,1.94586,3.23877.4696.77979.93414,1.56152,1.40747,2.33936.65918,1.083,1.32855,2.16064,1.99487,3.23975.475.76953.94513,1.5415,1.42383,2.30908.66827,1.07178,1.34686,2.13721,2.02216,3.20508.48682.77.96844,1.54248,1.45886,2.31006.7049,1.10352,1.4201,2.20068,2.13239,3.2998.469.72363.93268,1.4502,1.40485,2.17188.7818,1.19531,1.57422,2.38379,2.36469,3.57373.4126.62109.81982,1.24512,1.2348,1.86475q1.34555,2.009,2.713,4.00488c.31726.46533.62958.93408.94818,1.39893q3.69406,5.38916,7.50525,10.69971c.2829.394.571.78418.85486,1.17773q1.4838,2.05737,2.97992,4.105c.4165.56738.8399,1.12939,1.25836,1.69531.876,1.18457,1.75043,2.37012,2.63495,3.54785.47186.62842.95093,1.251,1.42517,1.87744.83887,1.1084,1.67566,2.21777,2.522,3.32031.51685.67285,1.041,1.33984,1.56061,2.01074.81226,1.04834,1.62213,2.09912,2.44116,3.14209.55011.70068,1.1076,1.395,1.66077,2.09277.79724,1.00635,1.59192,2.01465,2.39532,3.01514.56805.70752,1.14325,1.4082,1.71436,2.11328.79816.98486,1.59375,1.97217,2.39789,2.95166.58087.70752,1.16876,1.4082,1.75269,2.11328.744.89746,1.484,1.79883,2.233,2.6919l-37.56641,31.52246A645.52819,645.52819,0,0,1,437.6333,1325.25977Zm65.1084,92.64258,37.56641-31.52246c.66913.79541,1.34747,1.584,2.021,2.376.67853.79785,1.353,1.59863,2.03595,2.39355.75214.875,1.51294,1.74316,2.27039,2.61475.66626.76611,1.32837,1.53565,1.99866,2.29834.80249.91357,1.61383,1.82031,2.42212,2.729.63269.71143,1.261,1.42676,1.89734,2.13525.86578.96435,1.74054,1.92139,2.61279,2.88037.58948.64795,1.17444,1.30029,1.76685,1.9458.92847,1.01221,1.86621,2.01611,2.80176,3.02246.5448.58545,1.085,1.17529,1.6322,1.75879,1.00012,1.06689,2.00952,2.12549,3.01746,3.18506.4917.51709.97882,1.03809,1.47241,1.55371q1.73611,1.812,3.4917,3.60645c.35028.35986.69647.72314,1.04767,1.082q4.57269,4.67212,9.24561,9.2456c.30145.29492.60687.58545.90894.87988q1.88232,1.83472,3.77673,3.65625c.54022.51758,1.08649,1.02832,1.6286,1.54395q1.54935,1.47363,3.10376,2.94043c.65375.61279,1.314,1.21826,1.97046,1.82813.93512.86914,1.86761,1.74072,2.808,2.60352.713.65381,1.43262,1.30029,2.14862,1.95068.892.81055,1.78125,1.62451,2.67786,2.4292.74591.66992,1.49829,1.33105,2.24738,1.99707.87384.77637,1.74493,1.55664,2.623,2.32813.77228.67822,1.55084,1.34863,2.32642,2.02246.86212.75,1.72156,1.50293,2.58771,2.24707.79437.68262,1.595,1.35693,2.39264,2.03564.4118.3501.82263.70166,1.23529,1.05078l-31.52136,37.56543q-20.78265-17.59277-40.22217-37.02Q520.77393,1439.30566,502.7417,1417.90234Zm244.44385,180.55688a650.01928,650.01928,0,0,1-70.27441-34.85327l24.52893-42.48462c.39185.22485.78522.44751,1.17761.67163.99408.56763,1.98572,1.13892,2.98334,1.70117.93463.52661,1.87482,1.04419,2.8125,1.56592.95813.533,1.9137,1.07031,2.87494,1.59814,1.00305.55078,2.01172,1.092,3.01813,1.63721.90283.489,1.8028.98291,2.70825,1.46728,1.0777.57666,2.16113,1.14307,3.24249,1.71314.84082.44336,1.67877.89185,2.52185,1.33105,1.15222.60059,2.31018,1.19043,3.46637,1.78345.77936.39966,1.55573.80469,2.33685,1.20117,1.31256.666,2.631,1.3208,3.94849,1.97705.62762.31274,1.25244.63086,1.88116.94141q2.44006,1.2052,4.89294,2.38379c.32562.15723.64929.31836.97522.47485q5.89828,2.83337,11.856,5.53735c.33063.15015.66321.29541.99414.44482q2.47916,1.11987,4.96588,2.22119c.56659.24976,1.13611.49219,1.70343.74023,1.42413.62256,2.84808,1.24561,4.27661,1.85693.71405.30542,1.43134.6023,2.14642.905,1.28644.54468,2.572,1.09155,3.86176,1.62671.77869.32324,1.56049.63745,2.34039.95727,1.23035.50439,2.45959,1.012,3.69281,1.50806.83014.334,1.66327.65869,2.49463.98877,1.18463.47021,2.368.94409,3.55518,1.40649.88153.34351,1.766.67725,2.64886,1.01636,1.14166.43872,2.28223.88086,3.426,1.312.90869.34277,1.82007.67554,2.73,1.01367,1.04041.38623,2.07922.77832,3.12134,1.15869l-16.769,46.07129Q762.14453,1604.78577,747.18555,1598.45923Zm31.07861,12.2168,16.769-46.07178c1.061.38525,2.127.75952,3.19061,1.13867.89465.31909,1.78723.64307,2.68378.958,1.16223.408,2.32886.80566,3.49408,1.20679.88843.30566,1.7746.61645,2.66473.918,1.19226.40405,2.38886.79736,3.58411,1.19385.86377.28662,1.72534.57861,2.59064.86108,1.26941.41479,2.543.81812,3.81561,1.22437.796.25415,1.58984.51392,2.38708.76465,1.35168.42529,2.70758.83862,4.06262,1.25439.72321.22192,1.44446.44971,2.16864.66895,1.48553.44946,2.97528.887,4.46472,1.32519.59662.17529,1.19122.35669,1.78845.53027q2.86926.83423,5.74829,1.63794c.17413.04858.34753.09985.52173.14844q6.30862,1.76038,12.65686,3.38281c.19354.04956.38782.09595.58148.14526q2.873.73132,5.75244,1.43677c.54767.13354,1.09686.26025,1.64484.39233,1.566.37744,3.13214.75488,4.701,1.11963.72632.1687,1.45441.32886,2.18127.49512,1.39386.3186,2.78711.63941,4.183.948.8125.17944,1.62677.34985,2.43994.52612,1.31171.28418,2.62286.57129,3.93622.84668.86841.18213,1.7384.35449,2.60754.53272,1.26086.2583,2.52118.52026,3.78339.77051.91168.18066,1.82483.35156,2.73718.52808,1.21954.23584,2.43854.47534,3.65918.70337.95782.179,1.91693.34814,2.87543.52222,1.09277.19873,2.18475.40308,3.27826.59546l-8.519,48.31274A641.959,641.959,0,0,1,778.26416,1610.676Zm109.41846,29.18872,8.51855-48.3125c1.04742.18262,2.098.35376,3.147.53076,1.00116.16894,2.00092.34277,3.00348.50659,1.16278.18994,2.32843.36938,3.493.55249.97363.15332,1.94586.31177,2.92072.4602,1.17932.17944,2.36127.34814,3.5423.52075.965.14111,1.92877.2876,2.8949.42383,1.235.17456,2.47253.3374,3.70923.50439.91022.12256,1.81915.251,2.73016.36963,1.34283.1748,2.688.33789,4.03265.50366.80963.09985,1.6181.20581,2.42834.30249,1.4436.17212,2.88934.33179,4.33478.49365.71478.08008,1.42859.166,2.1438.24365,1.75739.19043,3.51678.36816,5.27655.54321.40228.04.80383.08472,1.20624.124q6.506.63391,13.03009,1.12866c.46082.03491.92224.06372,1.38318.09766,1.70978.12549,3.41974.24951,5.13086.36084.70813.0459,1.41687.0835,2.12518.127,1.46454.09009,2.929.18213,4.39429.26172.83936.04541,1.67926.0813,2.51886.12353,1.33282.06665,2.66547.13672,3.99872.19482.93164.04053,1.86359.0708,2.79541.10718,1.24316.04834,2.48621.10059,3.72968.14136.97217.03174,1.94452.05347,2.91687.08057,1.20288.03369,2.40564.07129,3.60852.09766,1.01117.02246,2.0224.03442,3.03357.05151,1.16351.01977,2.327.0437,3.49042.05688,1.03241.01147,2.06464.0127,3.09692.019,1.061.00659,2.12219.019,3.183.01978v49A653.99206,653.99206,0,0,1,887.68262,1639.86475Zm112.81738,9.635v-49c1.06085-.00073,2.122-.01318,3.183-.01978,1.03235-.00635,2.06458-.00757,3.097-.019,1.16333-.01318,2.32684-.03711,3.49023-.05688,1.01135-.01709,2.02258-.02905,3.03394-.05151,1.20337-.02637,2.40662-.064,3.60986-.09766.97186-.0271,1.94366-.04883,2.91547-.08057,1.24506-.04077,2.48975-.09326,3.73456-.1416.93024-.03613,1.8606-.06665,2.79065-.10693,1.33606-.0581,2.67151-.12842,4.0072-.19531.83673-.042,1.67383-.07764,2.51037-.123,1.47009-.07983,2.93921-.17212,4.40851-.26245.70355-.04321,1.40753-.08057,2.1109-.12622,1.72046-.11182,3.43988-.23657,5.159-.36279.45154-.0332.90357-.06152,1.355-.0957q6.52423-.49439,13.03229-1.12891c.358-.03467.71527-.07471,1.07318-.11035q2.70666-.2688,5.4104-.55713c.67719-.07324,1.35278-.15478,2.02954-.23047,1.48389-.16577,2.968-.33008,4.45-.50684.76977-.0918,1.538-.19263,2.30719-.28735,1.38568-.17065,2.77179-.33862,4.15558-.5188.86291-.11255,1.72382-.23437,2.586-.35034,1.28552-.1731,2.57172-.34277,3.85541-.52417.91437-.12915,1.8266-.26782,2.74-.40112,1.23358-.18017,2.46783-.35644,3.69959-.54419.91693-.13965,1.83148-.28857,2.74738-.43262,1.22333-.19214,2.44757-.38086,3.66894-.58057.9375-.15308,1.87237-.31592,2.80872-.47363,1.11-.187,2.22156-.36841,3.32983-.56152l8.51758,48.3125A653.99207,653.99207,0,0,1,1000.5,1649.49976Zm112.80273-9.80713-8.51855-48.31274c1.11853-.19678,2.23547-.40576,3.35321-.60913.93195-.16943,1.86462-.33374,2.796-.50781,1.24249-.23218,2.48328-.47583,3.72467-.71606.89032-.17212,1.78137-.33887,2.67108-.51514,1.3125-.26025,2.623-.53223,3.93408-.80127.81677-.16773,1.6344-.32959,2.45056-.50049,1.39783-.293,2.79352-.59814,4.18951-.90137.72852-.1582,1.45813-.31055,2.18616-.47143,1.49853-.3313,2.99444-.6748,4.4906-1.01758.62457-.14307,1.25024-.28052,1.87439-.42554,1.64532-.38257,3.28778-.77759,4.92993-1.17407.47375-.1145.94867-.22363,1.42212-.33911q3.10721-.75842,6.20618-1.55c.04157-.01074.08325-.02075.12482-.03125q6.35211-1.62341,12.66675-3.3855c.09412-.02612.1878-.054.282-.08008q3.00137-.83936,5.99347-1.70776c.50678-.14746,1.01135-.30151,1.51764-.4502,1.57733-.46313,3.15448-.927,4.72748-1.40308.72955-.2207,1.456-.4502,2.18463-.67358,1.34918-.41406,2.69928-.82568,4.04517-1.24927.80933-.25439,1.6153-.51807,2.42334-.77612,1.26056-.40259,2.52222-.802,3.7796-1.21265.86163-.28149,1.71954-.57227,2.57965-.85767,1.20068-.39819,2.40259-.79321,3.60022-1.199.89789-.3042,1.79181-.61792,2.688-.92627,1.15363-.397,2.30872-.79053,3.45935-1.19458.91895-.32275,1.83368-.65454,2.75067-.98169,1.04419-.37256,2.0907-.73975,3.13232-1.11792l16.76855,46.07153A641.94215,641.94215,0,0,1,1113.30273,1639.69263Zm139.51172-41.2334q-14.95459,6.32556-30.13867,11.874l-16.76855-46.071c1.04266-.38062,2.08209-.77271,3.123-1.15942.90936-.33765,1.82013-.67041,2.72809-1.0127,1.14508-.43188,2.28687-.87451,3.42981-1.31348.88159-.33862,1.76477-.67212,2.645-1.01489,1.20538-.46973,2.407-.95068,3.60974-1.42822.81152-.32251,1.62488-.63916,2.43518-.96533,1.27234-.51172,2.54065-1.03516,3.80981-1.55591.74085-.304,1.48352-.60229,2.22327-.90918,1.33923-.55591,2.67407-1.12329,4.00964-1.68921.66589-.282,1.33374-.5581,1.99866-.84277,1.519-.6499,3.03357-1.312,4.54785-1.97461.47607-.2085.95435-.41187,1.43018-.62158q2.937-1.29419,5.86084-2.62134c.03076-.01392.06177-.02734.09241-.04126q8.94635-4.06018,17.7605-8.41358c.28528-.14087.56848-.28564.85339-.427q2.49444-1.23669,4.97876-2.49292c.51367-.26074,1.024-.52783,1.537-.79,1.42578-.72876,2.85144-1.45752,4.27112-2.19751.59546-.3103,1.18677-.62769,1.78088-.93994,1.33044-.69922,2.66138-1.39722,3.98621-2.1062.67822-.363,1.35181-.73364,2.02856-1.09912,1.2356-.66748,2.47253-1.333,3.70325-2.00879.72351-.39746,1.44214-.80273,2.16394-1.20312,1.17969-.6543,2.36084-1.3064,3.53589-1.96875.74133-.41773,1.47778-.84326,2.217-1.26416,1.06592-.60693,2.13428-1.20947,3.196-1.82251l24.53027,42.488A649.91138,649.91138,0,0,1,1252.81445,1598.45923Zm72.44531-36.09277-24.53125-42.48877c.95093-.55127,1.89673-1.11328,2.84509-1.67017.84607-.49658,1.69446-.98877,2.53845-1.49,1.03552-.61475,2.06592-1.23975,3.09814-1.86108.82642-.49756,1.6554-.99023,2.47974-1.49219,1.04395-.63525,2.08252-1.28076,3.12292-1.92285.80676-.498,1.61633-.99072,2.421-1.49268,1.08581-.67725,2.16577-1.36475,3.2478-2.04907.752-.47583,1.50684-.94629,2.25708-1.42554,1.12769-.72022,2.24951-1.45117,3.3728-2.17944.70129-.45483,1.40576-.90405,2.10523-1.36157,1.19385-.78076,2.3811-1.57275,3.56958-2.3623.62231-.41309,1.2478-.82129,1.86865-1.23682q2.08026-1.3938,4.14636-2.80908c.41736-.28467.83777-.56445,1.25452-.8501q5.391-3.6958,10.70313-7.50781c.36621-.26318.729-.53076,1.09485-.79443q2.10022-1.51465,4.19067-3.04248c.53332-.3916,1.06164-.78955,1.59363-1.18311,1.21753-.8999,2.43579-1.79883,3.64648-2.708.62427-.46875,1.24292-.94482,1.86548-1.416,1.11243-.8418,2.22656-1.68213,3.333-2.53174.668-.5127,1.32983-1.0332,1.99561-1.54883,1.05347-.81592,2.109-1.62988,3.157-2.45264.70679-.55518,1.40723-1.11768,2.11133-1.67529.99878-.792,1.99976-1.58057,2.99316-2.37842.72974-.58545,1.45276-1.17871,2.17944-1.76807.96191-.77979,1.92627-1.55664,2.88306-2.3418.72827-.59814,1.45-1.20312,2.17541-1.80469.879-.72852,1.7616-1.45312,2.63611-2.18652l31.52246,37.56689A645.50683,645.50683,0,0,1,1325.25977,1562.36646Zm134.00586-103.10083q-19.96,19.96-41.36328,37.99219l-31.52246-37.56543c.88562-.74561,1.764-1.50049,2.64575-2.251.7019-.59766,1.407-1.19092,2.10657-1.792.94519-.8125,1.8833-1.6333,2.82373-2.45215.69861-.60791,1.40051-1.21143,2.09656-1.82275.94287-.82812,1.87842-1.66553,2.81641-2.49951.6853-.60986,1.37427-1.21484,2.05713-1.82812.95191-.85449,1.89648-1.71826,2.84326-2.5791.66174-.60156,1.32715-1.19873,1.98621-1.80371.96521-.88525,1.92273-1.77978,2.88245-2.67187.63342-.58887,1.27075-1.17285,1.90186-1.76465,1.03857-.97363,2.069-1.95654,3.101-2.938.54309-.51611,1.09021-1.02783,1.63147-1.54639q1.81824-1.7417,3.618-3.50244c.35584-.34668.71545-.68945,1.07043-1.03662q4.66937-4.57031,9.24-9.23975c.417-.42627.82813-.85742,1.2439-1.28467q1.652-1.69775,3.29565-3.40381c.53223-.55566,1.05774-1.11768,1.58789-1.67529.969-1.01953,1.94019-2.03711,2.902-3.063.57556-.61426,1.14392-1.23437,1.71667-1.85059.90723-.97559,1.81689-1.94922,2.71728-2.93115.59741-.65088,1.18726-1.30859,1.78174-1.96191.86914-.95605,1.74121-1.90918,2.60388-2.8706.60071-.66895,1.19373-1.34424,1.79114-2.01562.84595-.95068,1.6947-1.89941,2.5343-2.855.60913-.69385,1.21057-1.39307,1.81628-2.08936.8208-.94287,1.64429-1.88379,2.45874-2.83154.59534-.69287,1.18286-1.39111,1.77466-2.08643.75635-.88818,1.51684-1.77295,2.26758-2.66553l37.56543,31.52246Q1479.23291,1439.29492,1459.26563,1459.26563Zm38.63672-42.12891-37.56738-31.52246c.65259-.77783,1.29675-1.56348,1.94556-2.34522.68726-.82812,1.37805-1.65332,2.061-2.48535.70923-.86377,1.41016-1.73486,2.11475-2.603.66406-.81836,1.33179-1.63281,1.9917-2.45508.72021-.897,1.43213-1.80127,2.14722-2.70264.63525-.80029,1.27454-1.59766,1.90576-2.40137.75317-.95947,1.49744-1.92578,2.245-2.88965.58337-.75244,1.17114-1.501,1.751-2.25635.80627-1.04981,1.60291-2.10693,2.40247-3.1626.51318-.67725,1.03125-1.35107,1.54175-2.03076.87085-1.16016,1.73144-2.32715,2.594-3.49316.43115-.583.86743-1.16211,1.29651-1.74658q1.66058-2.26245,3.297-4.5415c.17651-.24512.3562-.48828.53247-.73389q3.81757-5.31885,7.51855-10.71875c.13794-.20068.27271-.40381.41016-.605q1.63586-2.39282,3.251-4.79883c.303-.45264.6-.90869.90161-1.36182q1.355-2.03467,2.698-4.07715c.3822-.584.75708-1.17285,1.13721-1.7583.80347-1.23779,1.6084-2.47461,2.40259-3.71777.41675-.65234.82568-1.30957,1.24-1.96338.74829-1.18115,1.49866-2.36182,2.23828-3.54785.43543-.69824.86255-1.40039,1.29492-2.1001.709-1.14746,1.42029-2.29346,2.12109-3.44482.45068-.74072.89307-1.48535,1.34058-2.22754.67163-1.11475,1.34607-2.22754,2.01-3.34619.4624-.77832.916-1.561,1.37463-2.3418.59314-1.00928,1.19128-2.0166,1.7782-3.0293l42.48828,24.53125A645.37569,645.37569,0,0,1,1497.90234,1417.13672ZM1598.459,1252.81445a649.94925,649.94925,0,0,1-35.5918,71.5791l-42.48828-24.53027c.61-1.05615,1.20947-2.11914,1.81311-3.17969.42493-.74609.85437-1.48926,1.276-2.23779.65259-1.15772,1.295-2.32178,1.93994-3.48437.40942-.73779.82361-1.47266,1.23-2.2124.6604-1.20264,1.31055-2.41113,1.96289-3.61865.38159-.70605.76819-1.40918,1.147-2.1167.65637-1.22656,1.302-2.459,1.95-3.69043.36645-.69629.738-1.38965,1.10168-2.0874.67078-1.28711,1.33069-2.58008,1.99219-3.87207.33-.64453.665-1.28564.99255-1.93115.7312-1.44092,1.451-2.88818,2.17078-4.335.24915-.501.50342-.99951.7511-1.501q1.32751-2.688,2.62561-5.38965c.077-.16016.15625-.31885.233-.47852q2.83777-5.907,5.54553-11.873c.05213-.11475.10242-.23047.15466-.3457q1.26819-2.79932,2.50928-5.60986c.2124-.48193.41846-.9668.62964-1.44922.66064-1.50928,1.32056-3.019,1.96838-4.5332.27454-.64209.54126-1.28662.8136-1.9292.57544-1.3584,1.15247-2.71582,1.71765-4.07764.30115-.72559.59387-1.4541.89209-2.18115.527-1.28369,1.05627-2.56689,1.5741-3.854.3064-.76172.60376-1.52588.907-2.28857.499-1.25537,1.00073-2.51025,1.49109-3.769.30676-.78711.60461-1.57715.908-2.36572.4762-1.23779.955-2.47461,1.42249-3.71436.30566-.811.60229-1.624.9043-2.436.4209-1.13135.84656-2.26123,1.26025-3.39453l46.07129,16.76758Q1604.78516,1237.855,1598.459,1252.81445Zm12.2168-31.0791-46.07129-16.76807c.36621-1.0083.72144-2.02148,1.08228-3.03272.34-.95215.68457-1.90283,1.01977-2.85742.3833-1.09131.75647-2.1875,1.13354-3.28174.32983-.957.66455-1.9126.9895-2.87158.36645-1.08154.72253-2.16748,1.08276-3.251.32544-.97949.65588-1.95605.97632-2.9375.3479-1.06494.6853-2.13379,1.02734-3.20166.3208-1.00146.64673-2.001.9624-3.00439.34143-1.08545.67212-2.17481,1.00732-3.26221.30493-.98926.61523-1.97656.915-2.96728.34265-1.13233.67407-2.26856,1.01013-3.40332.28113-.94922.56812-1.897.84461-2.84814.38-1.30713.748-2.61865,1.11926-3.92822.22131-.78125.44873-1.56006.66687-2.3418q.79779-2.86084,1.56494-5.73.13989-.52148.27918-1.04248.77692-2.91724,1.52685-5.84131c.15759-.6167.3075-1.23584.46314-1.853.37659-1.49316.75427-2.98584,1.11938-4.48193.18762-.769.36609-1.54053.5509-2.31006.323-1.34668.64893-2.69336.96252-4.042.19006-.81738.37061-1.63623.55713-2.4541.29773-1.30518.59863-2.60986.88757-3.917.18091-.81787.35242-1.63769.52979-2.457.28393-1.31006.57068-2.61914.8457-3.93115.16711-.79736.3252-1.59668.48914-2.39453.27429-1.33594.55127-2.67139.81628-4.00879.15356-.77441.29834-1.5498.44861-2.32471.26453-1.36279.53113-2.72559.78613-4.08984.14136-.75684.27429-1.51465.41272-2.272.23413-1.28125.47253-2.562.69824-3.84424l48.3125,8.51855A641.86011,641.86011,0,0,1,1610.67578,1221.73535Zm-19.124-117.93652c.1853-1.06348.35938-2.13037.53906-3.1958.16589-.98389.33667-1.96582.49768-2.95068.1919-1.17383.37293-2.35059.558-3.52637.15161-.96387.30847-1.92676.45544-2.8916.18225-1.19678.35339-2.39648.52869-3.59522.13818-.9458.28174-1.89014.41553-2.83691.17358-1.23.33594-2.4624.50207-3.69385.1239-.91895.25354-1.83643.37341-2.75635.16675-1.28174.3219-2.56543.48059-3.84863.10779-.87158.22156-1.7417.32544-2.61377.16016-1.34326.30823-2.689.45947-4.03369.09167-.81543.18957-1.62988.278-2.4458.15991-1.47607.30713-2.9541.4563-4.43164.06921-.686.14465-1.37109.21142-2.05713q.633-6.49439,1.12671-13.00635c.05591-.73926.103-1.479.15625-2.21826.10327-1.42969.20874-2.85889.30176-4.28955.05884-.90332.10742-1.80762.16211-2.71094.077-1.27148.158-2.542.227-3.814.05029-.92773.09058-1.85644.13672-2.78467.06177-1.24609.12769-2.4917.182-3.73828.04163-.95459.07288-1.90918.10986-2.86426.04749-1.22217.099-2.44385.139-3.666.03174-.97168.05347-1.94336.08057-2.915.03369-1.20361.07129-2.40723.0979-3.61084.02148-.98145.033-1.96289.0498-2.94434.02051-1.19727.04492-2.39453.05835-3.5918.01074-.95068.01172-1.90137.01782-2.85205.00415-.63818.00977-1.27685.012-1.915H1649.491a653.8543,653.8543,0,0,1-9.62573,110.31738Z"/></svg>