<svg xmlns="http://www.w3.org/2000/svg" viewBox="0 0 2000 2000"><title>ring-1-p2-06</title><path d="M392.742,1348.42984a701.66292,701.66292,0,0,0,67.104,96.83515" style="fill:none;stroke:#a09898;stroke-miterlimit:10"/><path d="M340.24466,765.50057a694.73953,694.73953,0,0,0-26.31593,94.86355" style="fill:none;stroke:#a09898;stroke-miterlimit:10"/><path d="M463.7894,549.99907a702.55425,702.55425,0,0,0-49.10958,65.9298" style="fill:none;stroke:#a09898;stroke-miterlimit:10"/><path d="M632.46313,404.13685a702.20048,702.20048,0,0,0-82.467,59.655" style="fill:none;stroke:#a09898;stroke-miterlimit:10"/><path d="M791.84143,331.47061q-32.87862,10.22631-64.313,23.53885" style="fill:none;stroke:#a09898;stroke-miterlimit:10"/><path d="M1202.51011,329.74007A700.01088,700.01088,0,0,0,1000,300" style="fill:none;stroke:#a09898;stroke-miterlimit:10"/><path d="M1411.90791,433.96073q-26.69922-19.46245-55.24892-36.412" style="fill:none;stroke:#a09898;stroke-miterlimit:10"/><path d="M1664.45738,779.17845a700.74744,700.74744,0,0,0-201.45723-304.19532" style="fill:none;stroke:#a09898;stroke-miterlimit:10"/><path d="M1699.23755,967.03609a702.65339,702.65339,0,0,0-8.02014-78.22953" style="fill:none;stroke:#a09898;stroke-miterlimit:10"/><path d="M1510.76791,1478.66413a697.89232,697.89232,0,0,0,179.23352-360.10549" style="fill:none;stroke:#a09898;stroke-miterlimit:10"/><path d="M1332.65266,1616.06078q24.60948-13.31634,48.00182-28.50835" style="fill:none;stroke:#a09898;stroke-miterlimit:10"/><path d="M1202.0366,1670.40262q23.1866-6.978,45.67718-15.49569" style="fill:none;stroke:#a09898;stroke-miterlimit:10"/><path d="M817.81443,1676.05648A700.91706,700.91706,0,0,0,1000,1700q25.21756,0,50.00009-1.75821" style="fill:none;stroke:#a09898;stroke-miterlimit:10"/><path d="M585.9285,1564.45579q27.20485,19.9905,56.34791,37.36257" style="fill:none;stroke:#a09898;stroke-miterlimit:10"/></svg>