<svg xmlns="http://www.w3.org/2000/svg" viewBox="0 0 2000 2000"><circle cx="1700" cy="1000" r="10"/><path d="M1494.97412,515.52588a10.5,10.5,0,1,1,10.5-10.5A10.512,10.512,0,0,1,1494.97412,515.52588Zm0-20a9.5,9.5,0,1,0,9.5,9.5A9.51081,9.51081,0,0,0,1494.97412,495.52588Z"/><circle cx="1494.97413" cy="1495.20819" r="10"/><circle cx="300" cy="1000" r="10"/><circle cx="1000" cy="300" r="10"/><circle cx="505.02587" cy="505.02587" r="10"/><circle cx="1000" cy="1700" r="10"/><path d="M505.02588,1505.70825a10.5,10.5,0,1,1,10.5-10.5A10.5118,10.5118,0,0,1,505.02588,1505.70825Zm0-20a9.5,9.5,0,1,0,9.5,9.5A9.51081,9.51081,0,0,0,505.02588,1485.70825Z"/></svg>