<svg xmlns="http://www.w3.org/2000/svg" viewBox="0 0 2000 2000"><title>ring-2-p1</title><path d="M200,1000q0,2.00134.00977,4" style="fill:none;stroke:#a09898;stroke-miterlimit:10;stroke-width:4px"/><path d="M200.07373,1010.98218c5.84326,434.27368,357.71545,784.99573,792.43481,788.98352" style="fill:none;stroke:#a09898;stroke-miterlimit:10;stroke-width:4px;stroke-dasharray:7.97943639755249,6.982006549835205"/><path d="M995.99988,1799.99023q1.999.0097,4.00012.00977" style="fill:none;stroke:#a09898;stroke-miterlimit:10;stroke-width:4px"/><path d="M371.47046,505.02148q-1.23743,1.56885-2.467,3.14429" style="fill:none;stroke:#a09898;stroke-miterlimit:10;stroke-width:4px"/><path d="M365.06787,513.24951q-11.605,15.11536-22.49854,30.79077" style="fill:none;stroke:#a09898;stroke-miterlimit:10;stroke-width:4px;stroke-dasharray:7.352839946746826,6.433734893798828"/><path d="M340.73267,546.69482q-1.13562,1.64868-2.26331,3.30322" style="fill:none;stroke:#a09898;stroke-miterlimit:10;stroke-width:4px"/><path d="M552.7124,336.62744q-1.6593,1.121-3.31262,2.25" style="fill:none;stroke:#a09898;stroke-miterlimit:10;stroke-width:4px"/><path d="M543.739,342.77881q-16.74609,11.64734-32.8606,24.11646" style="fill:none;stroke:#a09898;stroke-miterlimit:10;stroke-width:4px;stroke-dasharray:7.8569865226745605,6.874863147735596"/><path d="M508.16785,369.00171q-1.57526,1.22974-3.14429,2.467" style="fill:none;stroke:#a09898;stroke-miterlimit:10;stroke-width:4px"/><path d="M1628.52942,505.02124q-1.23807-1.56995-2.48383-3.13379" style="fill:none;stroke:#a09898;stroke-miterlimit:10;stroke-width:4px"/><path d="M1621.6427,496.4104C1476.43561,317.38477,1255.453,202.31763,1007.52,200.03467" style="fill:none;stroke:#a09898;stroke-miterlimit:10;stroke-width:4px;stroke-dasharray:8.034104347229004,7.029841423034668"/><path d="M1004.00012,200.00977q-1.999-.00989-4.00012-.00977" style="fill:none;stroke:#a09898;stroke-miterlimit:10;stroke-width:4px"/><path d="M1494.977,1628.53088q1.56995-1.23816,3.13361-2.48389" style="fill:none;stroke:#a09898;stroke-miterlimit:10;stroke-width:4px"/><path d="M1503.58771,1621.64417c179.02686-145.207,294.09463-366.19031,296.37768-614.12414" style="fill:none;stroke:#a09898;stroke-miterlimit:10;stroke-width:4px;stroke-dasharray:8.034131050109863,7.029864311218262"/><path d="M1799.9902,1004q.0098-1.99878.0098-4" style="fill:none;stroke:#a09898;stroke-miterlimit:10;stroke-width:4px"/></svg>