<svg xmlns="http://www.w3.org/2000/svg" viewBox="0 0 48 48"><path d="M38.51392,9.5387c-.00867-.01019-.00873-.02472-.01831-.0343s-.02417-.00977-.03436-.01843A20.48861,20.48861,0,0,0,9.48608,38.4613c.00867.01019.00873.02472.01831.0343a.47239.47239,0,0,0,.05267.035A20.488,20.488,0,0,0,38.51392,9.5387ZM4.5166,24.32721,16.22845,19.476A8.94567,8.94567,0,0,0,15,24c0,.12683.01379.25006.019.37561L9.70117,37.21387A19.4001,19.4001,0,0,1,4.5166,24.32721Zm38.9668-.65442L31.77155,28.524A8.94567,8.94567,0,0,0,33,24c0-.12683-.01379-.25006-.019-.37561l5.31781-12.83826A19.4001,19.4001,0,0,1,43.4834,23.67279ZM30.70062,18.00641l6.0177-6.0177-4.02478,9.71667A8.9643,8.9643,0,0,0,30.70062,18.00641Zm-.707-.707a8.9643,8.9643,0,0,0-3.699-1.99292l9.71667-4.02478ZM17.29944,29.99353l-6.01776,6.01776,4.02478-9.71667A8.965,8.965,0,0,0,17.29944,29.99353Zm.707.70709a8.9636,8.9636,0,0,0,3.699,1.99292l-9.71667,4.02478ZM24.37561,15.019C24.25006,15.01379,24.12683,15,24,15a8.94567,8.94567,0,0,0-4.524,1.22845L24.32721,4.5166A19.4001,19.4001,0,0,1,37.21387,9.70117Zm-6.40906,2.24054L10.5882,9.88116A19.40685,19.40685,0,0,1,23.23566,4.53876Zm-.707.707L4.53876,23.23566A19.40685,19.40685,0,0,1,9.88116,10.5882ZM23.62439,32.981c.12555.00519.24878.019.37561.019a8.94567,8.94567,0,0,0,4.524-1.22845L23.67279,43.4834a19.4001,19.4001,0,0,1-12.88666-5.18457Zm6.40906-2.24054,7.37836,7.37836a19.40685,19.40685,0,0,1-12.64746,5.34241Zm.707-.707,12.72076-5.2691A19.40685,19.40685,0,0,1,38.11884,37.4118Z"/></svg>
