<svg xmlns="http://www.w3.org/2000/svg" viewBox="0 0 48 48"><path d="M44,11.59764a16.4091,16.4091,0,0,1-4.71314,1.292,8.2314,8.2314,0,0,0,3.60837-4.53975,16.44389,16.44389,0,0,1-5.21175,1.991,8.21412,8.21412,0,0,0-13.98375,7.48538A23.299,23.299,0,0,1,6.785,9.25139,8.21507,8.21507,0,0,0,9.32411,20.20776a8.16266,8.16266,0,0,1-3.7165-1.02663c-.00112.03425-.00112.069-.00112.10325a8.21183,8.21183,0,0,0,6.58325,8.04688,8.22751,8.22751,0,0,1-3.70612.141,8.21487,8.21487,0,0,0,7.666,5.69875A16.5585,16.5585,0,0,1,4,36.56889a23.22231,23.22231,0,0,0,12.57936,3.68775c15.09512,0,23.34962-12.50487,23.34962-23.34962q0-.53381-.02388-1.06137A16.66709,16.66709,0,0,0,44,11.59764Z"/></svg>
