<svg xmlns="http://www.w3.org/2000/svg" viewBox="0 0 48 48"><path d="M13.05761,8.55506a4.26291,4.26291,0,0,1-4.613,4.2755A4.21386,4.21386,0,0,1,4,8.55506,4.24779,4.24779,0,0,1,8.5575,4.27894,4.22973,4.22973,0,0,1,13.05761,8.55506ZM4.22649,43.71919V16.20831h8.55162V43.71919ZM17.89524,24.98394c0-3.4315-.11287-6.30013-.22637-8.77562h7.42675l.3955,3.82625h.169a9.876,9.876,0,0,1,8.4955-4.44462C39.78,15.58994,44,19.35956,44,27.46131V43.72106H35.449V28.47444c0-3.54425-1.24024-5.96425-4.3335-5.96425a4.6955,4.6955,0,0,0-4.38662,3.20675,6.12049,6.12049,0,0,0-.282,2.138V43.72106H17.89524Z"/></svg>
