<svg xmlns="http://www.w3.org/2000/svg" viewBox="0 0 48 48"><path d="M24,44A20,20,0,1,1,44,24,20.02285,20.02285,0,0,1,24,44ZM40.86711,26.738a25.073,25.073,0,0,0-10.64086-.7305A73.71975,73.71975,0,0,1,33.54461,38.187,17.10805,17.10805,0,0,0,40.86711,26.738ZM30.673,39.75138a70.99348,70.99348,0,0,0-3.64437-12.95475c-.03725.01288-.07512.025-.11236.03787-9.63564,3.35813-13.09451,10.04025-13.40214,10.66825A17.05679,17.05679,0,0,0,30.673,39.75138Zm-19.36462-4.303c.387-.66225,5.07562-8.42525,13.88612-11.27325q.33412-.108.67312-.20325c-.429-.97038-.896-1.94213-1.38487-2.89913a62.99334,62.99334,0,0,1-17.55737,2.431c-.00487.174-.0085.34737-.0085.5225A17.01608,17.01608,0,0,0,11.30836,35.44838ZM7.27761,20.52713A63.69158,63.69158,0,0,0,23.071,18.44575,109.19791,109.19791,0,0,0,16.73736,8.566,17.14521,17.14521,0,0,0,7.27761,20.52713ZM19.99674,7.418a91.16841,91.16841,0,0,1,6.37451,10.00063c6.07411-2.27662,8.64561-5.73312,8.95324-6.17075A17.06311,17.06311,0,0,0,19.99674,7.418Zm17.2265,5.805c-.35949.48775-3.22262,4.15712-9.53912,6.73587.39787.81363.77875,1.64125,1.134,2.47438q.18769.44306.36737.88137a39.93219,39.93219,0,0,1,11.89576.54988A17.00083,17.00083,0,0,0,37.22324,13.223Z"/></svg>
